<svg width="186" height="182" viewBox="0 0 186 182" fill="none" xmlns="http://www.w3.org/2000/svg">
<path d="M1 1H185V181H1V1Z" fill="white" stroke="#1E2C30" stroke-width="2"/>
<path d="M59.5443 112.424C59.8523 112.439 60.2556 112.453 60.7543 112.468C61.2529 112.483 61.7443 112.49 62.2283 112.49C62.9176 112.49 63.5776 112.483 64.2083 112.468C64.8389 112.453 65.2863 112.446 65.5503 112.446C67.0903 112.446 68.2489 112.769 69.0263 113.414C69.8036 114.059 70.1923 114.888 70.1923 115.9C70.1923 116.413 70.0823 116.919 69.8623 117.418C69.6569 117.902 69.3049 118.349 68.8063 118.76C68.3223 119.156 67.6696 119.479 66.8483 119.728V119.772C68.0069 119.919 68.9089 120.197 69.5543 120.608C70.2143 121.004 70.6763 121.473 70.9403 122.016C71.2043 122.559 71.3363 123.131 71.3363 123.732C71.3363 124.568 71.1236 125.309 70.6983 125.954C70.2876 126.585 69.6863 127.083 68.8943 127.45C68.1023 127.817 67.1563 128 66.0563 128C65.7336 128 65.2496 127.993 64.6043 127.978C63.9589 127.949 63.1816 127.934 62.2723 127.934C61.7589 127.934 61.2529 127.941 60.7543 127.956C60.2556 127.956 59.8523 127.971 59.5443 128V127.56C60.0429 127.531 60.4169 127.472 60.6663 127.384C60.9303 127.296 61.1063 127.12 61.1943 126.856C61.2823 126.592 61.3263 126.196 61.3263 125.668V114.756C61.3263 114.213 61.2823 113.817 61.1943 113.568C61.1063 113.304 60.9303 113.128 60.6663 113.04C60.4169 112.937 60.0429 112.879 59.5443 112.864V112.424ZM65.0003 112.864C64.3256 112.864 63.8856 112.989 63.6803 113.238C63.4749 113.487 63.3723 113.993 63.3723 114.756V125.668C63.3723 126.181 63.4163 126.57 63.5043 126.834C63.5923 127.098 63.7536 127.274 63.9883 127.362C64.2229 127.45 64.5676 127.494 65.0223 127.494C66.4596 127.494 67.5009 127.164 68.1463 126.504C68.8063 125.829 69.1363 124.876 69.1363 123.644C69.1363 122.515 68.8283 121.642 68.2123 121.026C67.6109 120.41 66.6136 120.102 65.2203 120.102H62.9543C62.9543 120.102 62.9543 120.043 62.9543 119.926C62.9543 119.794 62.9543 119.728 62.9543 119.728H64.8463C65.7116 119.728 66.3789 119.567 66.8483 119.244C67.3176 118.907 67.6403 118.467 67.8163 117.924C67.9923 117.367 68.0803 116.773 68.0803 116.142C68.0803 115.057 67.8383 114.243 67.3543 113.7C66.8849 113.143 66.1003 112.864 65.0003 112.864ZM78.5753 116.362C79.866 116.362 80.8706 116.758 81.5893 117.55C82.3226 118.327 82.6893 119.545 82.6893 121.202H74.9233L74.9013 120.784H80.5773C80.6066 120.065 80.548 119.405 80.4013 118.804C80.2546 118.188 80.02 117.697 79.6973 117.33C79.3893 116.963 78.986 116.78 78.4873 116.78C77.8126 116.78 77.2113 117.117 76.6833 117.792C76.17 118.467 75.862 119.537 75.7593 121.004L75.8253 121.092C75.796 121.312 75.774 121.554 75.7593 121.818C75.7446 122.082 75.7373 122.346 75.7373 122.61C75.7373 123.607 75.8986 124.465 76.2213 125.184C76.544 125.903 76.962 126.453 77.4753 126.834C78.0033 127.201 78.546 127.384 79.1033 127.384C79.5433 127.384 79.9613 127.318 80.3573 127.186C80.7533 127.039 81.12 126.805 81.4573 126.482C81.7946 126.159 82.088 125.727 82.3373 125.184L82.7773 125.36C82.616 125.844 82.352 126.313 81.9853 126.768C81.6186 127.223 81.1566 127.597 80.5993 127.89C80.042 128.169 79.3966 128.308 78.6633 128.308C77.6073 128.308 76.698 128.066 75.9353 127.582C75.1873 127.098 74.608 126.431 74.1973 125.58C73.8013 124.715 73.6033 123.725 73.6033 122.61C73.6033 121.319 73.8086 120.212 74.2193 119.288C74.63 118.349 75.2093 117.631 75.9573 117.132C76.7053 116.619 77.578 116.362 78.5753 116.362ZM87.7462 128.154C87.1449 128.154 86.6242 128.044 86.1842 127.824C85.7442 127.589 85.4069 127.267 85.1722 126.856C84.9522 126.445 84.8422 125.969 84.8422 125.426C84.8422 124.781 84.9889 124.253 85.2822 123.842C85.5902 123.431 85.9789 123.101 86.4482 122.852C86.9175 122.603 87.4089 122.397 87.9222 122.236C88.4502 122.06 88.9489 121.899 89.4182 121.752C89.8875 121.591 90.2689 121.407 90.5622 121.202C90.8702 120.997 91.0242 120.725 91.0242 120.388V119.024C91.0242 118.408 90.9289 117.939 90.7382 117.616C90.5622 117.293 90.3202 117.081 90.0122 116.978C89.7042 116.861 89.3595 116.802 88.9782 116.802C88.6115 116.802 88.2155 116.853 87.7902 116.956C87.3795 117.059 87.0495 117.271 86.8002 117.594C87.0789 117.653 87.3209 117.799 87.5262 118.034C87.7315 118.269 87.8342 118.569 87.8342 118.936C87.8342 119.303 87.7169 119.596 87.4822 119.816C87.2475 120.021 86.9469 120.124 86.5802 120.124C86.1549 120.124 85.8395 119.992 85.6342 119.728C85.4435 119.449 85.3482 119.141 85.3482 118.804C85.3482 118.423 85.4435 118.115 85.6342 117.88C85.8249 117.645 86.0669 117.425 86.3602 117.22C86.6975 116.985 87.1302 116.787 87.6582 116.626C88.2009 116.45 88.8095 116.362 89.4842 116.362C90.0855 116.362 90.5989 116.435 91.0242 116.582C91.4495 116.714 91.8015 116.912 92.0802 117.176C92.4615 117.528 92.7109 117.961 92.8282 118.474C92.9455 118.973 93.0042 119.574 93.0042 120.278V126.394C93.0042 126.761 93.0555 127.025 93.1582 127.186C93.2755 127.347 93.4515 127.428 93.6862 127.428C93.8475 127.428 94.0015 127.391 94.1482 127.318C94.2949 127.245 94.4709 127.127 94.6762 126.966L94.9182 127.34C94.6102 127.575 94.3169 127.773 94.0382 127.934C93.7595 128.081 93.3855 128.154 92.9162 128.154C92.4909 128.154 92.1389 128.081 91.8602 127.934C91.5815 127.787 91.3689 127.575 91.2222 127.296C91.0902 127.003 91.0242 126.636 91.0242 126.196C90.6282 126.856 90.1515 127.347 89.5942 127.67C89.0515 127.993 88.4355 128.154 87.7462 128.154ZM88.5382 127.274C89.0222 127.274 89.4695 127.135 89.8802 126.856C90.3055 126.577 90.6869 126.159 91.0242 125.602V121.29C90.8482 121.539 90.5915 121.752 90.2542 121.928C89.9169 122.089 89.5502 122.258 89.1542 122.434C88.7582 122.595 88.3769 122.793 88.0102 123.028C87.6582 123.248 87.3649 123.541 87.1302 123.908C86.8955 124.275 86.7782 124.751 86.7782 125.338C86.7782 125.925 86.9322 126.394 87.2402 126.746C87.5629 127.098 87.9955 127.274 88.5382 127.274ZM105.831 116.428V125.624C105.831 126.284 105.949 126.775 106.183 127.098C106.433 127.406 106.873 127.56 107.503 127.56V128.022C107.049 127.978 106.594 127.956 106.139 127.956C105.714 127.956 105.303 127.978 104.907 128.022C104.526 128.066 104.174 128.147 103.851 128.264V125.668C103.485 126.621 102.964 127.303 102.289 127.714C101.629 128.11 100.947 128.308 100.243 128.308C99.7299 128.308 99.2826 128.235 98.9012 128.088C98.5199 127.941 98.2046 127.736 97.9552 127.472C97.6766 127.179 97.4859 126.797 97.3832 126.328C97.2806 125.859 97.2292 125.279 97.2292 124.59V119.068C97.2292 118.408 97.1119 117.924 96.8772 117.616C96.6426 117.293 96.2026 117.132 95.5572 117.132V116.67C96.0266 116.714 96.4812 116.736 96.9212 116.736C97.3466 116.736 97.7499 116.714 98.1312 116.67C98.5272 116.611 98.8866 116.531 99.2092 116.428V125.074C99.2092 125.529 99.2386 125.947 99.2972 126.328C99.3559 126.709 99.5026 127.017 99.7372 127.252C99.9719 127.487 100.353 127.604 100.881 127.604C101.453 127.604 101.959 127.428 102.399 127.076C102.854 126.724 103.206 126.247 103.455 125.646C103.719 125.045 103.851 124.37 103.851 123.622V119.068C103.851 118.408 103.734 117.924 103.499 117.616C103.265 117.293 102.825 117.132 102.179 117.132V116.67C102.649 116.714 103.103 116.736 103.543 116.736C103.969 116.736 104.372 116.714 104.753 116.67C105.149 116.611 105.509 116.531 105.831 116.428ZM112.432 113.018V116.692H115.688V117.132H112.432V125.646C112.432 126.335 112.557 126.819 112.806 127.098C113.056 127.377 113.4 127.516 113.84 127.516C114.28 127.516 114.662 127.34 114.984 126.988C115.307 126.621 115.586 126.013 115.82 125.162L116.26 125.272C116.114 126.123 115.82 126.841 115.38 127.428C114.955 128.015 114.295 128.308 113.4 128.308C112.902 128.308 112.491 128.242 112.168 128.11C111.846 127.993 111.56 127.817 111.31 127.582C110.988 127.245 110.76 126.841 110.628 126.372C110.511 125.903 110.452 125.279 110.452 124.502V117.132H108.34V116.692H110.452V113.326C110.819 113.311 111.171 113.282 111.508 113.238C111.846 113.194 112.154 113.121 112.432 113.018ZM127.162 116.67V117.11C126.883 117.139 126.626 117.264 126.392 117.484C126.157 117.704 125.937 118.093 125.732 118.65L122.124 128.11H121.75L117.702 118.364C117.423 117.792 117.144 117.447 116.866 117.33C116.602 117.198 116.382 117.132 116.206 117.132V116.67C116.528 116.714 116.866 116.751 117.218 116.78C117.57 116.795 117.951 116.802 118.362 116.802C118.816 116.802 119.293 116.787 119.792 116.758C120.305 116.729 120.782 116.699 121.222 116.67V117.132C120.855 117.132 120.525 117.161 120.232 117.22C119.953 117.264 119.777 117.418 119.704 117.682C119.63 117.931 119.718 118.364 119.968 118.98L122.674 125.69L122.542 125.734L125.05 119.178C125.24 118.694 125.314 118.313 125.27 118.034C125.24 117.741 125.094 117.521 124.83 117.374C124.566 117.227 124.17 117.139 123.642 117.11V116.67C123.906 116.685 124.133 116.699 124.324 116.714C124.514 116.714 124.698 116.721 124.874 116.736C125.064 116.736 125.27 116.736 125.49 116.736C125.827 116.736 126.128 116.729 126.392 116.714C126.67 116.699 126.927 116.685 127.162 116.67ZM122.124 128.11L121.376 130.024C121.229 130.391 121.075 130.699 120.914 130.948C120.767 131.197 120.606 131.403 120.43 131.564C120.195 131.784 119.916 131.931 119.594 132.004C119.271 132.092 118.978 132.136 118.714 132.136C118.435 132.136 118.178 132.085 117.944 131.982C117.724 131.879 117.548 131.725 117.416 131.52C117.284 131.329 117.218 131.095 117.218 130.816C117.218 130.464 117.32 130.178 117.526 129.958C117.731 129.753 118.017 129.65 118.384 129.65C118.692 129.65 118.956 129.738 119.176 129.914C119.396 130.09 119.506 130.347 119.506 130.684C119.506 130.933 119.447 131.139 119.33 131.3C119.212 131.461 119.073 131.586 118.912 131.674C118.941 131.689 118.963 131.696 118.978 131.696C119.007 131.696 119.029 131.696 119.044 131.696C119.44 131.696 119.792 131.557 120.1 131.278C120.408 131.014 120.679 130.581 120.914 129.98L121.706 127.934L122.124 128.11Z" fill="#141414"/>
<g clip-path="url(#clip0_122_2)">
<path d="M98.3966 65.6064C97.9944 65.155 97.3025 65.117 96.8511 65.5192C96.1916 66.1084 94.5378 66.7018 92.33 66.7018C90.1208 66.7018 88.467 66.107 87.8089 65.5192C87.3575 65.117 86.6656 65.155 86.2635 65.6064C85.8613 66.0564 85.8992 66.7483 86.3506 67.1518C87.5699 68.2417 89.8058 68.8914 92.33 68.8914C94.8556 68.8914 97.0902 68.2417 98.3094 67.1518C98.7608 66.7483 98.8002 66.0578 98.3966 65.6064Z" fill="#7A9CA5"/>
<path d="M89.7411 55.9594C89.3333 55.5123 88.6414 55.4813 88.1956 55.8891C87.8792 56.1774 87.0003 56.4882 85.8177 56.4882C84.635 56.4882 83.7561 56.1774 83.4397 55.8891C82.9925 55.4813 82.3006 55.5137 81.8942 55.9594C81.4864 56.4066 81.5188 57.0985 81.9645 57.5049C82.7689 58.239 84.2089 58.6763 85.8177 58.6763C87.4264 58.6763 88.8678 58.239 89.6708 57.5049C90.1166 57.0985 90.1489 56.4052 89.7411 55.9594Z" fill="#7A9CA5"/>
<path d="M90.793 50.8281C89.7678 50.1629 87.9088 49.7664 85.8177 49.7664C83.7266 49.7664 81.8661 50.1629 80.8424 50.8281C80.3361 51.1571 80.1913 51.835 80.5203 52.3412C80.7299 52.6632 81.0814 52.839 81.4386 52.839C81.6425 52.839 81.8492 52.7814 82.0335 52.6618C82.5777 52.3089 83.9586 51.9531 85.8177 51.9531C87.6767 51.9531 89.0577 52.3089 89.6019 52.6618C90.1095 52.9909 90.7874 52.8475 91.115 52.3398C91.4441 51.835 91.3006 51.1571 90.793 50.8281Z" fill="#7A9CA5"/>
<path d="M102.766 55.9594C102.358 55.5123 101.666 55.4813 101.22 55.8891C100.904 56.1774 100.025 56.4882 98.8423 56.4882C97.6597 56.4882 96.7808 56.1774 96.4644 55.8891C96.0186 55.4813 95.3253 55.5137 94.9189 55.9594C94.5111 56.4066 94.5434 57.0985 94.9892 57.5049C95.7936 58.239 97.2336 58.6763 98.8423 58.6763C100.451 58.6763 101.891 58.239 102.695 57.5049C103.143 57.0985 103.174 56.4052 102.766 55.9594Z" fill="#7A9CA5"/>
<path d="M103.819 50.8281C102.794 50.1629 100.935 49.7664 98.8423 49.7664C96.7513 49.7664 94.8908 50.1629 93.867 50.8281C93.3594 51.1571 93.2159 51.835 93.545 52.3412C93.8741 52.8475 94.5519 52.9923 95.0595 52.6632C95.6038 52.3103 96.9847 51.9545 98.8438 51.9545C100.703 51.9545 102.084 52.3103 102.628 52.6632C102.812 52.7828 103.019 52.8404 103.223 52.8404C103.581 52.8404 103.932 52.6646 104.141 52.3426C104.47 51.835 104.325 51.1571 103.819 50.8281Z" fill="#7A9CA5"/>
<path d="M113.536 86.575C111.604 84.9325 108.969 84.0283 106.117 84.0283C102.364 84.0283 99.7677 83.1916 98.675 82.757V77.7958C104.301 75.7553 108.675 71.0838 110.302 65.2745C113.824 64.833 116.562 61.8138 116.562 58.18C116.562 54.8205 114.186 51.9334 110.991 51.205V48.782C112.255 44.3509 112.176 39.9986 111.882 37.1144C111.715 35.4663 111.462 34.1106 111.279 33.2641C111.109 32.478 110.999 32.0533 110.918 31.8072C110.901 31.7425 110.88 31.6792 110.85 31.6173C109.638 29.0481 107.482 26.8586 104.723 25.2175C104.667 25.1767 104.608 25.143 104.546 25.1134C101.156 23.1461 96.8792 22 92.33 22C88.7483 22 85.2453 22.7087 82.2008 24.0489C81.6481 24.2922 81.3964 24.9377 81.6397 25.4917C81.883 26.0444 82.5284 26.2961 83.0825 26.0528C85.8514 24.8336 89.0492 24.1895 92.33 24.1895C95.9595 24.1895 99.3824 24.97 102.22 26.3369C100.89 27.4816 99.3064 28.5841 97.4136 29.6823C96.8905 29.9861 96.7133 30.6555 97.017 31.1786C97.2195 31.5287 97.5866 31.7242 97.9648 31.7242C98.1519 31.7242 98.3403 31.6764 98.5133 31.5766C100.806 30.2463 102.686 28.8991 104.238 27.4745C106.137 28.7177 107.648 30.2659 108.61 32.0392C108.572 32.0997 108.533 32.1587 108.493 32.2192C108.467 32.2586 108.44 32.2994 108.413 32.3387C106.017 35.8291 100.932 39.1731 93.5759 42.0967C93.5324 42.1136 93.4874 42.1305 93.4438 42.1488C93.2834 42.212 93.1231 42.2753 92.9614 42.3372C85.6447 45.1637 78.1817 46.8245 75.552 47.3631C74.9544 44.9402 74.7659 42.5495 74.787 40.4134C75.6969 40.2306 76.6025 39.9691 77.487 39.7145C78.1803 39.5134 78.8975 39.3067 79.5894 39.1464C79.6006 39.1436 79.6119 39.1408 79.6231 39.138C84.1217 37.9469 88.5486 36.3381 93.9781 33.9208C94.5308 33.6747 94.7783 33.0278 94.5322 32.4766C94.2861 31.9253 93.6392 31.6764 93.088 31.9225C87.7766 34.2878 83.4552 35.86 79.0803 37.0188C78.3364 37.1917 77.5953 37.4055 76.8795 37.6122C76.1947 37.8105 75.5338 38.0003 74.8869 38.1522C75.1245 35.095 75.7067 32.8984 75.8234 32.478C76.5814 30.9072 77.7795 29.4798 79.3869 28.2311C79.865 27.8612 79.9508 27.1736 79.5809 26.6955C79.2097 26.2188 78.5234 26.1316 78.0453 26.5014C76.137 27.9836 74.7111 29.7048 73.8069 31.6202C73.7844 31.6694 73.7647 31.7186 73.7492 31.7706C73.6452 32.1152 71.2363 40.2728 73.6663 48.7862V51.2092C70.4741 51.9334 68.0961 54.8219 68.0961 58.1814C68.0961 61.8152 70.8355 64.8344 74.3567 65.2759C75.9838 71.0852 80.3586 75.7567 85.9836 77.7972V82.7584C84.8881 83.1944 82.2936 84.0311 78.5417 84.0311C75.6899 84.0311 73.0559 84.9353 71.1223 86.5778C69.1719 88.2344 68.0961 90.483 68.0961 92.9059C68.0961 93.5106 68.5855 94 69.1902 94H115.47C116.074 94 116.564 93.5106 116.564 92.9059C116.564 90.483 115.488 88.2344 113.536 86.575ZM110.811 62.8361C110.929 61.9783 110.991 61.112 110.991 60.2472V53.4775C112.96 54.1441 114.374 56.0228 114.374 58.1814C114.374 60.4328 112.86 62.3453 110.797 62.9472C110.803 62.9106 110.807 62.8727 110.811 62.8361ZM70.2842 58.1814C70.2842 56.0228 71.6989 54.1441 73.6677 53.4775V60.2472C73.6677 61.1134 73.7295 61.9783 73.8477 62.8361C73.8533 62.8727 73.8561 62.9106 73.8617 62.9472C71.7988 62.3439 70.2842 60.4328 70.2842 58.1814ZM109.018 35.1048C109.043 35.0767 109.069 35.0472 109.094 35.0191C109.163 34.9403 109.23 34.8616 109.296 34.7828C109.309 34.7673 109.323 34.7519 109.336 34.7378C109.832 37.5039 110.338 42.3681 109.107 47.3617C106.928 46.9159 101.428 45.7038 95.4603 43.6942C101.714 41.1067 106.252 38.2323 109.018 35.1048ZM76.1202 63.1877C76.1188 63.1764 76.1159 63.1638 76.1131 63.1525C75.9402 62.1948 75.8572 61.2203 75.8572 60.2472V52.143V49.533C75.867 49.5316 75.8783 49.5288 75.8895 49.5259C77.5841 49.1884 79.2688 48.7933 80.945 48.3742C82.7113 47.9327 84.4677 47.4545 86.2128 46.9356C87.3561 46.5953 88.4952 46.2381 89.6258 45.8598C89.6469 45.8528 89.6666 45.8458 89.6877 45.8388H94.9752C101.077 47.8792 106.681 49.1027 108.804 49.5316V52.1416V60.2458C108.804 61.2175 108.718 62.1948 108.547 63.1525C108.546 63.1638 108.543 63.175 108.541 63.1862C107.422 69.3794 102.828 74.3786 96.8581 76.0872C96.8483 76.09 96.8384 76.0928 96.8286 76.0956C95.3675 76.5062 93.8488 76.72 92.33 76.72C90.8155 76.72 89.2855 76.5161 87.83 76.0956C87.823 76.0942 87.8174 76.0914 87.8103 76.09C81.838 74.3828 77.2409 69.3822 76.1202 63.1877ZM70.3883 91.8105C70.6484 90.4591 71.3909 89.2202 72.5399 88.2428C74.0769 86.9364 76.2088 86.2178 78.5417 86.2178C84.1738 86.2178 87.4545 84.5092 87.5909 84.4361C87.9481 84.2463 88.1717 83.875 88.1717 83.47C88.1717 83.47 88.1717 78.4427 88.1717 78.4441C88.1745 78.8617 92.1078 78.9095 92.3286 78.9095C93.7264 78.9095 95.1214 78.7548 96.4855 78.4441V83.4714C96.4855 83.8764 96.7091 84.2477 97.0663 84.4375C97.2027 84.5106 100.483 86.2192 106.116 86.2192C108.448 86.2192 110.58 86.9378 112.117 88.2442C113.268 89.2216 114.009 90.4605 114.269 91.8119H70.3883V91.8105Z" fill="#7A9CA5"/>
</g>
<path d="M66.0397 138.424C65.981 138.937 65.937 139.436 65.9077 139.92C65.893 140.404 65.8857 140.771 65.8857 141.02C65.8857 141.284 65.893 141.541 65.9077 141.79C65.9224 142.025 65.937 142.223 65.9517 142.384H65.4457C65.3577 141.519 65.233 140.837 65.0717 140.338C64.9104 139.825 64.6317 139.465 64.2357 139.26C63.8544 139.04 63.275 138.93 62.4977 138.93H60.6717C60.173 138.93 59.7917 138.974 59.5277 139.062C59.2784 139.135 59.1097 139.304 59.0217 139.568C58.9337 139.817 58.8897 140.213 58.8897 140.756V151.668C58.8897 152.196 58.9337 152.592 59.0217 152.856C59.1097 153.12 59.2784 153.296 59.5277 153.384C59.7917 153.457 60.173 153.494 60.6717 153.494H62.2777C63.2017 153.494 63.8984 153.369 64.3677 153.12C64.8517 152.871 65.1964 152.467 65.4017 151.91C65.6217 151.338 65.783 150.568 65.8857 149.6H66.3917C66.3477 149.996 66.3257 150.524 66.3257 151.184C66.3257 151.463 66.333 151.866 66.3477 152.394C66.377 152.907 66.421 153.443 66.4797 154C65.7317 153.971 64.8884 153.956 63.9497 153.956C63.011 153.941 62.175 153.934 61.4417 153.934C61.119 153.934 60.701 153.934 60.1877 153.934C59.689 153.934 59.1464 153.941 58.5597 153.956C57.973 153.956 57.379 153.963 56.7777 153.978C56.1764 153.978 55.6044 153.985 55.0617 154V153.56C55.5604 153.531 55.9344 153.472 56.1837 153.384C56.4477 153.296 56.6237 153.12 56.7117 152.856C56.7997 152.592 56.8437 152.196 56.8437 151.668V140.756C56.8437 140.213 56.7997 139.817 56.7117 139.568C56.6237 139.304 56.4477 139.128 56.1837 139.04C55.9344 138.937 55.5604 138.879 55.0617 138.864V138.424C55.6044 138.439 56.1764 138.453 56.7777 138.468C57.379 138.468 57.973 138.475 58.5597 138.49C59.1464 138.49 59.689 138.49 60.1877 138.49C60.701 138.49 61.119 138.49 61.4417 138.49C62.1164 138.49 62.879 138.49 63.7297 138.49C64.595 138.475 65.365 138.453 66.0397 138.424ZM62.2557 145.948C62.2557 145.948 62.2557 146.021 62.2557 146.168C62.2557 146.315 62.2557 146.388 62.2557 146.388H58.2297C58.2297 146.388 58.2297 146.315 58.2297 146.168C58.2297 146.021 58.2297 145.948 58.2297 145.948H62.2557ZM62.8937 143.044C62.835 143.88 62.8057 144.518 62.8057 144.958C62.8204 145.398 62.8277 145.801 62.8277 146.168C62.8277 146.535 62.835 146.938 62.8497 147.378C62.8644 147.818 62.901 148.456 62.9597 149.292H62.4537C62.395 148.823 62.3217 148.368 62.2337 147.928C62.1604 147.473 61.9844 147.107 61.7057 146.828C61.4417 146.535 60.987 146.388 60.3417 146.388V145.948C60.8257 145.948 61.1924 145.853 61.4417 145.662C61.7057 145.457 61.8964 145.2 62.0137 144.892C62.131 144.584 62.2117 144.269 62.2557 143.946C62.2997 143.609 62.3437 143.308 62.3877 143.044H62.8937ZM72.4719 142.67V143.132C72.1933 143.132 71.9586 143.198 71.7679 143.33C71.5773 143.462 71.5553 143.645 71.7019 143.88L77.5759 152.438C77.8253 152.805 78.0453 153.069 78.2359 153.23C78.4266 153.377 78.6613 153.479 78.9399 153.538V154C78.7933 153.985 78.5659 153.971 78.2579 153.956C77.9646 153.927 77.6713 153.912 77.3779 153.912C76.9233 153.912 76.4319 153.927 75.9039 153.956C75.3906 153.971 75.0166 153.985 74.7819 154V153.538C75.0753 153.538 75.3173 153.472 75.5079 153.34C75.6986 153.193 75.7133 153.01 75.5519 152.79L69.6779 144.232C69.3846 143.807 69.1499 143.528 68.9739 143.396C68.7979 143.249 68.5779 143.161 68.3139 143.132V142.67C68.4606 142.685 68.6879 142.707 68.9959 142.736C69.3039 142.751 69.5973 142.758 69.8759 142.758C70.3453 142.758 70.8366 142.751 71.3499 142.736C71.8633 142.707 72.2373 142.685 72.4719 142.67ZM73.0659 148.258C73.0659 148.258 73.0806 148.309 73.1099 148.412C73.1393 148.5 73.1686 148.595 73.1979 148.698C73.2419 148.801 73.2639 148.852 73.2639 148.852L71.4379 151.228C71.0566 151.727 70.8513 152.145 70.8219 152.482C70.8073 152.819 70.9466 153.076 71.2399 153.252C71.5333 153.413 71.9366 153.516 72.4499 153.56V154C72.2006 153.985 71.9219 153.978 71.6139 153.978C71.3059 153.963 71.0053 153.956 70.7119 153.956C70.4333 153.941 70.1766 153.934 69.9419 153.934C69.6046 153.934 69.2966 153.941 69.0179 153.956C68.7539 153.956 68.5046 153.971 68.2699 154V153.56C68.5486 153.531 68.8346 153.406 69.1279 153.186C69.4359 152.951 69.7953 152.563 70.2059 152.02L73.0659 148.258ZM78.4999 142.67V143.11C78.2213 143.139 77.9133 143.286 77.5759 143.55C77.2533 143.799 76.9159 144.166 76.5639 144.65L74.0339 148.148C74.0339 148.148 74.0193 148.104 73.9899 148.016C73.9606 147.913 73.9313 147.818 73.9019 147.73C73.8726 147.627 73.8579 147.576 73.8579 147.576L75.5739 145.178C75.8966 144.723 76.1019 144.349 76.1899 144.056C76.2779 143.763 76.2266 143.543 76.0359 143.396C75.8599 143.235 75.5079 143.139 74.9799 143.11V142.67C75.3613 142.685 75.6766 142.699 75.9259 142.714C76.1899 142.729 76.4906 142.736 76.8279 142.736C77.1653 142.736 77.4659 142.729 77.7299 142.714C78.0086 142.699 78.2653 142.685 78.4999 142.67ZM83.6161 142.428V155.936C83.6161 156.567 83.7995 156.985 84.1661 157.19C84.5475 157.41 85.0681 157.52 85.7281 157.52V157.982C85.4055 157.967 84.9581 157.945 84.3861 157.916C83.8141 157.901 83.2055 157.894 82.5601 157.894C82.1055 157.894 81.6508 157.901 81.1961 157.916C80.7561 157.945 80.4188 157.967 80.1841 157.982V157.52C80.7121 157.52 81.0861 157.425 81.3061 157.234C81.5261 157.043 81.6361 156.684 81.6361 156.156V145.068C81.6361 144.408 81.5188 143.924 81.2841 143.616C81.0495 143.293 80.6095 143.132 79.9641 143.132V142.67C80.4335 142.714 80.8881 142.736 81.3281 142.736C81.7535 142.736 82.1568 142.714 82.5381 142.67C82.9341 142.611 83.2935 142.531 83.6161 142.428ZM87.1361 142.362C87.9135 142.362 88.6101 142.575 89.2261 143C89.8421 143.411 90.3261 144.019 90.6781 144.826C91.0448 145.633 91.2281 146.63 91.2281 147.818C91.2281 148.61 91.1328 149.395 90.9421 150.172C90.7515 150.935 90.4508 151.631 90.0401 152.262C89.6441 152.878 89.1235 153.377 88.4781 153.758C87.8475 154.125 87.0848 154.308 86.1901 154.308C85.5008 154.308 84.8995 154.147 84.3861 153.824C83.8875 153.501 83.5501 153.113 83.3741 152.658L83.5941 152.35C83.7995 152.761 84.0928 153.105 84.4741 153.384C84.8701 153.663 85.3615 153.802 85.9481 153.802C86.7695 153.802 87.4075 153.545 87.8621 153.032C88.3168 152.519 88.6321 151.837 88.8081 150.986C88.9988 150.121 89.0941 149.167 89.0941 148.126C89.0941 146.953 88.9988 145.992 88.8081 145.244C88.6175 144.496 88.3315 143.939 87.9501 143.572C87.5688 143.205 87.0995 143.022 86.5421 143.022C85.8235 143.022 85.1708 143.323 84.5841 143.924C83.9975 144.511 83.6235 145.405 83.4621 146.608L83.1981 146.3C83.3595 145.053 83.7995 144.085 84.5181 143.396C85.2515 142.707 86.1241 142.362 87.1361 142.362ZM98.5113 142.362C99.802 142.362 100.807 142.758 101.525 143.55C102.259 144.327 102.625 145.545 102.625 147.202H94.8593L94.8373 146.784H100.513C100.543 146.065 100.484 145.405 100.337 144.804C100.191 144.188 99.956 143.697 99.6333 143.33C99.3253 142.963 98.922 142.78 98.4233 142.78C97.7487 142.78 97.1473 143.117 96.6193 143.792C96.106 144.467 95.798 145.537 95.6953 147.004L95.7613 147.092C95.732 147.312 95.71 147.554 95.6953 147.818C95.6807 148.082 95.6733 148.346 95.6733 148.61C95.6733 149.607 95.8347 150.465 96.1573 151.184C96.48 151.903 96.898 152.453 97.4113 152.834C97.9393 153.201 98.482 153.384 99.0393 153.384C99.4793 153.384 99.8973 153.318 100.293 153.186C100.689 153.039 101.056 152.805 101.393 152.482C101.731 152.159 102.024 151.727 102.273 151.184L102.713 151.36C102.552 151.844 102.288 152.313 101.921 152.768C101.555 153.223 101.093 153.597 100.535 153.89C99.978 154.169 99.3327 154.308 98.5993 154.308C97.5433 154.308 96.634 154.066 95.8713 153.582C95.1233 153.098 94.544 152.431 94.1333 151.58C93.7373 150.715 93.5393 149.725 93.5393 148.61C93.5393 147.319 93.7447 146.212 94.1553 145.288C94.566 144.349 95.1453 143.631 95.8933 143.132C96.6413 142.619 97.514 142.362 98.5113 142.362ZM111.4 142.362C111.796 142.362 112.141 142.443 112.434 142.604C112.742 142.765 112.977 142.978 113.138 143.242C113.314 143.491 113.402 143.777 113.402 144.1C113.402 144.467 113.285 144.789 113.05 145.068C112.83 145.347 112.53 145.486 112.148 145.486C111.84 145.486 111.569 145.391 111.334 145.2C111.1 144.995 110.982 144.709 110.982 144.342C110.982 144.063 111.056 143.829 111.202 143.638C111.364 143.433 111.54 143.271 111.73 143.154C111.628 143.007 111.474 142.934 111.268 142.934C110.814 142.934 110.396 143.073 110.014 143.352C109.633 143.616 109.31 143.961 109.046 144.386C108.782 144.811 108.577 145.266 108.43 145.75C108.284 146.219 108.21 146.659 108.21 147.07V151.734C108.21 152.453 108.416 152.937 108.826 153.186C109.252 153.421 109.824 153.538 110.542 153.538V154C110.205 153.985 109.728 153.971 109.112 153.956C108.496 153.927 107.844 153.912 107.154 153.912C106.656 153.912 106.157 153.927 105.658 153.956C105.174 153.971 104.808 153.985 104.558 154V153.538C105.16 153.538 105.585 153.428 105.834 153.208C106.098 152.988 106.23 152.57 106.23 151.954V145.068C106.23 144.408 106.113 143.924 105.878 143.616C105.644 143.293 105.204 143.132 104.558 143.132V142.67C105.028 142.714 105.482 142.736 105.922 142.736C106.348 142.736 106.751 142.714 107.132 142.67C107.528 142.611 107.888 142.531 108.21 142.428V145.178C108.372 144.753 108.599 144.327 108.892 143.902C109.2 143.462 109.567 143.095 109.992 142.802C110.418 142.509 110.887 142.362 111.4 142.362ZM118.161 139.018V142.692H121.417V143.132H118.161V151.646C118.161 152.335 118.286 152.819 118.535 153.098C118.784 153.377 119.129 153.516 119.569 153.516C120.009 153.516 120.39 153.34 120.713 152.988C121.036 152.621 121.314 152.013 121.549 151.162L121.989 151.272C121.842 152.123 121.549 152.841 121.109 153.428C120.684 154.015 120.024 154.308 119.129 154.308C118.63 154.308 118.22 154.242 117.897 154.11C117.574 153.993 117.288 153.817 117.039 153.582C116.716 153.245 116.489 152.841 116.357 152.372C116.24 151.903 116.181 151.279 116.181 150.502V143.132H114.069V142.692H116.181V139.326C116.548 139.311 116.9 139.282 117.237 139.238C117.574 139.194 117.882 139.121 118.161 139.018ZM126.598 142.362C127.185 142.362 127.684 142.457 128.094 142.648C128.505 142.839 128.806 143.015 128.996 143.176C129.48 143.572 129.774 143.308 129.876 142.384H130.382C130.353 142.795 130.331 143.286 130.316 143.858C130.302 144.415 130.294 145.171 130.294 146.124H129.788C129.7 145.581 129.546 145.053 129.326 144.54C129.121 144.027 128.813 143.609 128.402 143.286C127.992 142.949 127.456 142.78 126.796 142.78C126.283 142.78 125.85 142.927 125.498 143.22C125.161 143.499 124.992 143.917 124.992 144.474C124.992 144.914 125.124 145.295 125.388 145.618C125.652 145.926 125.997 146.219 126.422 146.498C126.848 146.762 127.31 147.055 127.808 147.378C128.366 147.73 128.872 148.089 129.326 148.456C129.781 148.823 130.14 149.226 130.404 149.666C130.683 150.106 130.822 150.627 130.822 151.228C130.822 151.903 130.646 152.467 130.294 152.922C129.942 153.377 129.48 153.721 128.908 153.956C128.351 154.191 127.735 154.308 127.06 154.308C126.738 154.308 126.43 154.279 126.136 154.22C125.858 154.176 125.586 154.103 125.322 154C125.176 153.927 125.022 153.839 124.86 153.736C124.714 153.633 124.567 153.523 124.42 153.406C124.274 153.289 124.142 153.296 124.024 153.428C123.907 153.545 123.819 153.787 123.76 154.154H123.254C123.284 153.685 123.306 153.113 123.32 152.438C123.335 151.763 123.342 150.869 123.342 149.754H123.848C123.951 150.575 124.098 151.294 124.288 151.91C124.479 152.526 124.78 153.01 125.19 153.362C125.601 153.699 126.173 153.868 126.906 153.868C127.2 153.868 127.493 153.802 127.786 153.67C128.094 153.538 128.351 153.318 128.556 153.01C128.762 152.702 128.864 152.291 128.864 151.778C128.864 151.133 128.63 150.605 128.16 150.194C127.691 149.783 127.097 149.351 126.378 148.896C125.85 148.559 125.352 148.221 124.882 147.884C124.428 147.547 124.054 147.165 123.76 146.74C123.482 146.315 123.342 145.801 123.342 145.2C123.342 144.54 123.489 144.005 123.782 143.594C124.09 143.169 124.494 142.861 124.992 142.67C125.491 142.465 126.026 142.362 126.598 142.362Z" fill="#141414"/>
<defs>
<clipPath id="clip0_122_2">
<rect width="49" height="72" fill="white" transform="translate(68 22)"/>
</clipPath>
</defs>
</svg>
