<svg width="186" height="182" viewBox="0 0 188 185" fill="none" xmlns="http://www.w3.org/2000/svg">
<path d="M1 1H187V184H1V1Z" fill="white" stroke="#1E2C30" stroke-width="2"/>
<path d="M73.7432 121.428V130.734C73.7432 131.438 73.9046 131.915 74.2272 132.164C74.5499 132.413 75.0926 132.538 75.8552 132.538V133C75.5619 132.985 75.1292 132.971 74.5572 132.956C73.9999 132.927 73.4206 132.912 72.8192 132.912C72.1446 132.912 71.4919 132.927 70.8612 132.956C70.2452 132.971 69.7686 132.985 69.4312 133V132.538C70.1646 132.538 70.7366 132.421 71.1472 132.186C71.5579 131.937 71.7632 131.453 71.7632 130.734V125.41C71.7632 124.706 71.6899 124.185 71.5432 123.848C71.3966 123.511 71.1326 123.291 70.7512 123.188C70.3846 123.085 69.8712 123.034 69.2112 123.034V122.55C70.2672 122.521 71.1472 122.425 71.8512 122.264C72.5552 122.103 73.1859 121.824 73.7432 121.428ZM83.2938 121.362C84.3352 121.362 85.2518 121.604 86.0438 122.088C86.8505 122.557 87.4812 123.225 87.9358 124.09C88.3905 124.955 88.6178 125.975 88.6178 127.148C88.6178 128.321 88.3832 129.377 87.9138 130.316C87.4445 131.24 86.7918 131.973 85.9558 132.516C85.1345 133.044 84.1665 133.308 83.0518 133.308C82.0398 133.308 81.1305 133.073 80.3238 132.604C79.5172 132.12 78.8792 131.445 78.4098 130.58C77.9552 129.7 77.7278 128.673 77.7278 127.5C77.7278 126.341 77.9552 125.3 78.4098 124.376C78.8792 123.452 79.5318 122.719 80.3678 122.176C81.2038 121.633 82.1792 121.362 83.2938 121.362ZM83.0958 121.758C82.1572 121.758 81.3798 122.257 80.7638 123.254C80.1625 124.251 79.8618 125.645 79.8618 127.434C79.8618 128.754 80.0158 129.817 80.3238 130.624C80.6318 131.416 81.0425 131.995 81.5558 132.362C82.0838 132.729 82.6485 132.912 83.2498 132.912C84.2032 132.912 84.9805 132.413 85.5818 131.416C86.1832 130.404 86.4838 129.003 86.4838 127.214C86.4838 125.894 86.3298 124.838 86.0218 124.046C85.7138 123.239 85.3032 122.66 84.7898 122.308C84.2765 121.941 83.7118 121.758 83.0958 121.758ZM96.7492 121.362C97.7906 121.362 98.7072 121.604 99.4992 122.088C100.306 122.557 100.937 123.225 101.391 124.09C101.846 124.955 102.073 125.975 102.073 127.148C102.073 128.321 101.839 129.377 101.369 130.316C100.9 131.24 100.247 131.973 99.4112 132.516C98.5899 133.044 97.6219 133.308 96.5072 133.308C95.4952 133.308 94.5859 133.073 93.7792 132.604C92.9726 132.12 92.3346 131.445 91.8652 130.58C91.4106 129.7 91.1832 128.673 91.1832 127.5C91.1832 126.341 91.4106 125.3 91.8652 124.376C92.3346 123.452 92.9872 122.719 93.8232 122.176C94.6592 121.633 95.6346 121.362 96.7492 121.362ZM96.5512 121.758C95.6126 121.758 94.8352 122.257 94.2192 123.254C93.6179 124.251 93.3172 125.645 93.3172 127.434C93.3172 128.754 93.4712 129.817 93.7792 130.624C94.0872 131.416 94.4979 131.995 95.0112 132.362C95.5392 132.729 96.1039 132.912 96.7052 132.912C97.6586 132.912 98.4359 132.413 99.0372 131.416C99.6386 130.404 99.9392 129.003 99.9392 127.214C99.9392 125.894 99.7852 124.838 99.4772 124.046C99.1692 123.239 98.7586 122.66 98.2452 122.308C97.7319 121.941 97.1672 121.758 96.5512 121.758ZM107.543 116.258C108.525 116.258 109.317 116.573 109.919 117.204C110.52 117.835 110.821 118.715 110.821 119.844C110.821 120.577 110.674 121.223 110.381 121.78C110.102 122.337 109.713 122.77 109.215 123.078C108.731 123.386 108.173 123.54 107.543 123.54C106.56 123.54 105.768 123.225 105.167 122.594C104.565 121.963 104.265 121.083 104.265 119.954C104.265 119.221 104.404 118.575 104.683 118.018C104.976 117.461 105.365 117.028 105.849 116.72C106.347 116.412 106.912 116.258 107.543 116.258ZM115.683 126.422C115.111 126.422 114.685 126.701 114.407 127.258C114.128 127.815 113.989 128.629 113.989 129.7C113.989 130.771 114.15 131.577 114.473 132.12C114.795 132.648 115.228 132.912 115.771 132.912C116.343 132.912 116.761 132.633 117.025 132.076C117.303 131.519 117.443 130.712 117.443 129.656C117.443 128.571 117.289 127.764 116.981 127.236C116.673 126.693 116.24 126.422 115.683 126.422ZM115.727 126.026C116.709 126.026 117.501 126.341 118.103 126.972C118.704 127.603 119.005 128.483 119.005 129.612C119.005 130.345 118.858 130.991 118.565 131.548C118.286 132.105 117.897 132.538 117.399 132.846C116.915 133.154 116.357 133.308 115.727 133.308C114.744 133.308 113.952 132.993 113.351 132.362C112.749 131.731 112.449 130.851 112.449 129.722C112.449 128.989 112.588 128.343 112.867 127.786C113.16 127.229 113.549 126.796 114.033 126.488C114.531 126.18 115.096 126.026 115.727 126.026ZM107.499 116.654C106.927 116.654 106.501 116.933 106.223 117.49C105.944 118.047 105.805 118.861 105.805 119.932C105.805 121.003 105.966 121.809 106.289 122.352C106.611 122.88 107.044 123.144 107.587 123.144C108.159 123.144 108.577 122.865 108.841 122.308C109.119 121.751 109.259 120.944 109.259 119.888C109.259 118.803 109.105 117.996 108.797 117.468C108.489 116.925 108.056 116.654 107.499 116.654ZM118.015 114.872L118.433 115.158L105.563 134.21L105.145 133.924L118.015 114.872Z" fill="#141414"/>
<g clip-path="url(#clip0_122_4)">
<path d="M72.767 51.5116C73.6186 51.5116 74.309 50.8212 74.309 49.9695C74.309 49.1179 73.6186 48.4275 72.767 48.4275C71.9153 48.4275 71.2249 49.1179 71.2249 49.9695C71.2249 50.8212 71.9153 51.5116 72.767 51.5116Z" fill="#7A9CA5"/>
<path d="M124.923 48.3527C123.952 47.2374 122.516 46.5989 120.985 46.5989H108.512V43.9582C108.512 40.0909 105.365 36.9443 101.498 36.9443H100.289V36.7477C100.289 33.9836 98.0981 31.7239 95.3614 31.6096V28.9796C96.5073 28.7114 97.5023 28.3259 98.3389 27.8184C99.8931 26.8752 100.567 25.7355 100.858 24.9461C101.507 23.1831 100.824 21.1626 99.3034 20.3474C98.8707 20.1173 98.412 20 97.9381 20C96.9065 20 95.9374 20.5729 95.3523 21.5101C95.0567 21.7036 93.926 22.2872 91.0446 22.2872H83.8661C80.2197 22.2872 77.9539 24.7801 77.9539 28.7952C77.9539 30.7624 79.371 32.3639 81.1142 32.3639C82.6669 32.3639 83.9621 31.093 84.2257 29.4245H87.674V31.6096C84.9373 31.7239 82.7461 33.9836 82.7461 36.7477V36.9443H81.5363C77.6689 36.9443 74.5224 40.0909 74.5224 43.9582V44.0618H70.0029C67.9976 44.0618 66.3656 45.6938 66.3656 47.6991V54.5728C65.27 55.5099 64.5737 56.8996 64.5737 58.4523V60.7181C62.4953 62.2023 61.0797 64.5733 60.8984 67.2932C60.8206 68.4863 60.7658 69.751 60.7368 71.0493C60.7231 71.706 61.2427 72.25 61.8995 72.2652C62.5547 72.2805 63.1002 71.7593 63.1139 71.1026C63.1413 69.8394 63.1947 68.6112 63.2709 67.4501C63.4293 65.0487 64.9104 63.0205 66.9675 62.0606C66.9828 62.0545 66.9965 62.0468 67.0102 62.0408C67.833 61.6674 68.7442 61.4663 69.6478 61.4663H75.8831C76.7897 61.4663 77.6964 61.6674 78.5207 62.0408C78.536 62.0468 78.5497 62.0545 78.5634 62.0606C80.6433 63.0251 82.1077 65.1599 82.2601 67.4501C82.3804 69.2558 82.4399 71.1117 82.4399 72.9631C82.4399 73.8393 82.4155 74.7139 82.3972 75.5886C82.3957 75.619 82.3957 75.6495 82.3941 75.6815C82.3835 75.9909 81.5226 76.8442 81.3427 77.1642C81.0471 77.6898 80.8079 78.243 80.6311 78.819C80.2289 80.1264 80.1435 81.5054 80.1192 82.8646C80.0841 84.9003 80.2868 86.9452 80.7363 88.9322C80.7378 88.9414 80.7393 88.949 80.7424 88.9581C79.9912 91.0243 78.059 92.3912 75.8435 92.3912H69.6875C67.2388 92.3912 65.0933 90.6449 64.5828 88.2389C63.7737 84.4219 63.2891 80.2361 63.1413 75.7958C63.12 75.1391 62.5669 74.624 61.9132 74.6469C61.2564 74.6682 60.7414 75.2183 60.7643 75.875C60.9166 80.454 61.4195 84.7799 62.256 88.7326C62.9966 92.2312 66.1234 94.7713 69.6875 94.7713H75.8465C78.1626 94.7713 80.2654 93.7458 81.6719 92.0559C82.4231 94.0566 83.4349 95.9126 84.6859 97.5522C84.9114 97.8463 85.2604 98.02 85.6306 98.02H108.074C108.444 98.02 108.795 97.8463 109.019 97.5522C109.382 97.0783 109.723 96.5846 110.044 96.0772H120.271C120.927 96.0772 121.46 95.5454 121.46 94.8871V85.0679L124.284 64.6708C124.374 64.0201 123.92 63.4198 123.269 63.3299C122.617 63.24 122.018 63.694 121.928 64.3447L119.67 80.6612H113.453C113.372 79.8795 113.202 79.1085 112.926 78.3725C112.079 76.1143 110.345 74.333 108.17 73.4035L108.127 73.0911L105.165 51.6913C105.155 51.6151 105.149 51.5374 105.146 51.4612C105.146 51.4567 105.146 51.4536 105.146 51.449C105.124 50.6795 105.537 49.9862 106.138 49.5306C106.621 49.1649 107.254 48.979 107.856 48.979H120.987C121.829 48.979 122.611 49.3203 123.131 49.9161C123.572 50.4235 123.768 51.0544 123.679 51.6898L122.587 59.5844C122.497 60.2351 122.951 60.8355 123.601 60.9254C124.252 61.0153 124.852 60.5612 124.942 59.9105L126.035 52.0144C126.218 50.6872 125.823 49.3859 124.923 48.3527ZM83.8646 27.0444C83.316 27.0444 82.6349 27.1069 82.2402 27.5411C81.9309 27.8809 81.8944 28.3579 81.8944 28.7952C81.8944 29.4961 81.4829 29.9853 81.1127 29.9853C80.7424 29.9853 80.331 29.4961 80.331 28.7952C80.331 25.2021 82.545 24.6673 83.8646 24.6673H91.0431C92.1524 24.6673 93.3043 24.5972 94.406 24.3595C95.3553 24.1538 96.4174 23.849 97.1153 23.1359C97.3697 22.8753 97.4932 22.3816 97.9366 22.3816C98.0158 22.3816 98.0935 22.403 98.1743 22.4457C98.5948 22.6712 98.8752 23.4376 98.6208 24.1264C98.4166 24.681 97.5313 26.249 94.0037 26.828C93.9946 26.8295 93.987 26.8295 93.9778 26.831C93.0087 26.9895 92.0244 27.0459 91.0431 27.0459H88.8625L83.8646 27.0444ZM92.9798 29.3453V31.602H90.0526V29.423C90.0557 29.4748 92.9798 29.3696 92.9798 29.3453ZM87.8889 33.9806H88.8625H94.1698H95.1435C96.6673 33.9806 97.9076 35.2209 97.9076 36.7447V36.9413H85.1247V36.7447C85.1247 35.2209 86.3651 33.9806 87.8889 33.9806ZM68.7458 47.7036C68.7458 47.7021 68.7458 47.6991 68.7458 47.6975C68.7458 47.0042 69.3096 46.4404 70.0029 46.4404H75.5296C75.557 46.4404 75.5829 46.4435 75.6088 46.445C75.6149 46.445 75.6195 46.4465 75.624 46.4465C77.0183 46.5486 76.7867 48.1714 76.7867 49.1466C76.7867 50.3306 76.7867 51.5146 76.7867 52.6985C76.7867 52.9439 76.7867 53.1877 76.7867 53.433C76.4804 53.3766 76.168 53.3477 75.8557 53.3477C75.8557 53.3477 69.6783 53.3477 69.6753 53.3477C69.3873 53.3477 69.0505 53.4315 68.7473 53.4223C68.6574 51.5283 68.7458 49.6022 68.7458 47.7036ZM78.5802 59.5098C78.5802 59.1639 76.2183 59.0846 75.8831 59.0846H69.6509C68.7381 59.0846 67.8224 59.2294 66.9538 59.5098C66.9538 59.5098 66.9538 58.4508 66.9538 58.4492C66.9538 56.9788 68.2064 55.7247 69.6783 55.7247H75.8587C76.7532 55.7247 77.6171 56.188 78.1169 56.9285C78.6381 57.7011 78.5802 58.6214 78.5802 59.5098ZM111.879 92.5725C111.897 92.5131 111.911 92.4674 111.922 92.4384C112.335 91.2712 112.703 90.0827 112.973 88.8728C113.4 86.962 113.609 84.9948 113.586 83.0368H119.082V84.9826V93.694C119.082 93.694 111.347 93.694 111.344 93.694C111.548 93.6955 111.774 92.9199 111.879 92.5725ZM110.602 78.9835H104.986C104.329 78.9835 103.796 79.5153 103.796 80.1736C103.796 80.8319 104.327 81.3637 104.986 81.3637H111.126C111.131 81.4139 111.134 81.4657 111.139 81.516C111.509 86.4439 110.366 91.582 107.474 95.6398H86.2325C84.7743 93.5949 83.7183 91.195 83.1073 88.6046C82.5511 86.2443 82.3774 83.7803 82.5785 81.3637H100.227C100.883 81.3637 101.417 80.8319 101.417 80.1736C101.417 79.5153 100.885 78.9835 100.227 78.9835H83.0997C83.4075 78.2536 83.8524 77.5847 84.4192 77.0057C85.6063 75.7928 87.3022 75.0705 89.0195 75.0705H104.685C105.229 75.0705 105.766 75.1406 106.282 75.2762C108.187 75.7714 109.822 77.1337 110.602 78.9835ZM106.131 46.8808C106.131 46.8732 104.713 47.6168 104.577 47.7234C102.243 49.584 102.845 52.3024 103.2 54.8699L105.674 72.7467C105.667 72.7452 105.659 72.7452 105.65 72.7452C105.514 72.73 105.377 72.7193 105.24 72.7102C105.21 72.7087 105.181 72.7056 105.15 72.7041C104.996 72.6965 104.841 72.6904 104.684 72.6904H89.0195C88.2652 72.6904 87.5125 72.7879 86.7826 72.9784C86.4276 73.0713 86.0771 73.1856 85.7373 73.3197C85.6123 73.37 84.8185 73.6458 84.8169 73.7494C84.82 73.4842 84.82 73.2222 84.82 72.9601C84.82 71.0554 84.7575 69.1476 84.6341 67.2901C84.5442 65.9355 84.1297 64.5992 83.4455 63.4274C83.1347 62.8956 82.7675 62.3958 82.353 61.9402C82.1382 61.704 81.9111 61.48 81.6719 61.2697C81.582 61.1905 80.9588 60.7882 80.9588 60.7044V58.4477C80.9588 56.9803 80.2959 55.5251 79.1668 54.5652V47.696C79.1668 47.6107 79.1622 47.5269 79.1561 47.4431C79.1546 47.4263 79.1531 47.408 79.1516 47.3913C79.0358 46.0031 78.1383 44.8344 76.901 44.3285V43.9552C76.901 41.3998 78.9809 39.3199 81.5363 39.3199H83.9347H99.0962H101.495C104.05 39.3199 106.13 41.3998 106.13 43.9552C106.131 43.9567 106.131 46.8808 106.131 46.8808Z" fill="#7A9CA5"/>
</g>
<path d="M74.5429 143.424V143.864C74.0442 143.879 73.6629 143.952 73.3989 144.084C73.1496 144.216 72.9809 144.429 72.8929 144.722C72.8049 145.015 72.7609 145.433 72.7609 145.976V159.11C72.6729 159.11 72.5849 159.11 72.4969 159.11C72.4236 159.11 72.3429 159.11 72.2549 159.11L63.0149 144.832V156.448C63.0149 156.976 63.0589 157.394 63.1469 157.702C63.2496 157.995 63.4402 158.208 63.7189 158.34C64.0122 158.457 64.4449 158.531 65.0169 158.56V159C64.7529 158.971 64.4082 158.956 63.9829 158.956C63.5576 158.941 63.1542 158.934 62.7729 158.934C62.4062 158.934 62.0322 158.941 61.6509 158.956C61.2842 158.956 60.9762 158.971 60.7269 159V158.56C61.2256 158.531 61.5996 158.457 61.8489 158.34C62.1129 158.208 62.2889 157.995 62.3769 157.702C62.4649 157.394 62.5089 156.976 62.5089 156.448V145.756C62.5089 145.213 62.4649 144.817 62.3769 144.568C62.2889 144.304 62.1129 144.128 61.8489 144.04C61.5996 143.937 61.2256 143.879 60.7269 143.864V143.424C60.9762 143.439 61.2842 143.453 61.6509 143.468C62.0322 143.483 62.4062 143.49 62.7729 143.49C63.0956 143.49 63.4036 143.483 63.6969 143.468C63.9902 143.453 64.2542 143.439 64.4889 143.424L72.2549 155.392V145.976C72.2549 145.433 72.2036 145.015 72.1009 144.722C72.0129 144.429 71.8222 144.216 71.5289 144.084C71.2502 143.952 70.8249 143.879 70.2529 143.864V143.424C70.5169 143.439 70.8616 143.453 71.2869 143.468C71.7269 143.483 72.1302 143.49 72.4969 143.49C72.8782 143.49 73.2522 143.483 73.6189 143.468C74.0002 143.453 74.3082 143.439 74.5429 143.424ZM78.8894 159.154C78.2881 159.154 77.7674 159.044 77.3274 158.824C76.8874 158.589 76.5501 158.267 76.3154 157.856C76.0954 157.445 75.9854 156.969 75.9854 156.426C75.9854 155.781 76.1321 155.253 76.4254 154.842C76.7334 154.431 77.1221 154.101 77.5914 153.852C78.0608 153.603 78.5521 153.397 79.0654 153.236C79.5934 153.06 80.0921 152.899 80.5614 152.752C81.0308 152.591 81.4121 152.407 81.7054 152.202C82.0134 151.997 82.1674 151.725 82.1674 151.388V150.024C82.1674 149.408 82.0721 148.939 81.8814 148.616C81.7054 148.293 81.4634 148.081 81.1554 147.978C80.8474 147.861 80.5028 147.802 80.1214 147.802C79.7548 147.802 79.3588 147.853 78.9334 147.956C78.5228 148.059 78.1928 148.271 77.9434 148.594C78.2221 148.653 78.4641 148.799 78.6694 149.034C78.8748 149.269 78.9774 149.569 78.9774 149.936C78.9774 150.303 78.8601 150.596 78.6254 150.816C78.3908 151.021 78.0901 151.124 77.7234 151.124C77.2981 151.124 76.9828 150.992 76.7774 150.728C76.5868 150.449 76.4914 150.141 76.4914 149.804C76.4914 149.423 76.5868 149.115 76.7774 148.88C76.9681 148.645 77.2101 148.425 77.5034 148.22C77.8408 147.985 78.2734 147.787 78.8014 147.626C79.3441 147.45 79.9528 147.362 80.6274 147.362C81.2288 147.362 81.7421 147.435 82.1674 147.582C82.5928 147.714 82.9448 147.912 83.2234 148.176C83.6048 148.528 83.8541 148.961 83.9714 149.474C84.0888 149.973 84.1474 150.574 84.1474 151.278V157.394C84.1474 157.761 84.1988 158.025 84.3014 158.186C84.4188 158.347 84.5948 158.428 84.8294 158.428C84.9908 158.428 85.1448 158.391 85.2914 158.318C85.4381 158.245 85.6141 158.127 85.8194 157.966L86.0614 158.34C85.7534 158.575 85.4601 158.773 85.1814 158.934C84.9028 159.081 84.5288 159.154 84.0594 159.154C83.6341 159.154 83.2821 159.081 83.0034 158.934C82.7248 158.787 82.5121 158.575 82.3654 158.296C82.2334 158.003 82.1674 157.636 82.1674 157.196C81.7714 157.856 81.2948 158.347 80.7374 158.67C80.1948 158.993 79.5788 159.154 78.8894 159.154ZM79.6814 158.274C80.1654 158.274 80.6128 158.135 81.0234 157.856C81.4488 157.577 81.8301 157.159 82.1674 156.602V152.29C81.9914 152.539 81.7348 152.752 81.3974 152.928C81.0601 153.089 80.6934 153.258 80.2974 153.434C79.9014 153.595 79.5201 153.793 79.1534 154.028C78.8014 154.248 78.5081 154.541 78.2734 154.908C78.0388 155.275 77.9214 155.751 77.9214 156.338C77.9214 156.925 78.0754 157.394 78.3834 157.746C78.7061 158.098 79.1388 158.274 79.6814 158.274ZM90.5285 144.018V147.692H93.7845V148.132H90.5285V156.646C90.5285 157.335 90.6531 157.819 90.9025 158.098C91.1518 158.377 91.4965 158.516 91.9365 158.516C92.3765 158.516 92.7578 158.34 93.0805 157.988C93.4031 157.621 93.6818 157.013 93.9165 156.162L94.3565 156.272C94.2098 157.123 93.9165 157.841 93.4765 158.428C93.0511 159.015 92.3911 159.308 91.4965 159.308C90.9978 159.308 90.5871 159.242 90.2645 159.11C89.9418 158.993 89.6558 158.817 89.4065 158.582C89.0838 158.245 88.8565 157.841 88.7245 157.372C88.6071 156.903 88.5485 156.279 88.5485 155.502V148.132H86.4365V147.692H88.5485V144.326C88.9151 144.311 89.2671 144.282 89.6045 144.238C89.9418 144.194 90.2498 144.121 90.5285 144.018ZM105.016 147.428V156.624C105.016 157.284 105.133 157.775 105.368 158.098C105.617 158.406 106.057 158.56 106.688 158.56V159.022C106.233 158.978 105.778 158.956 105.324 158.956C104.898 158.956 104.488 158.978 104.092 159.022C103.71 159.066 103.358 159.147 103.036 159.264V156.668C102.669 157.621 102.148 158.303 101.474 158.714C100.814 159.11 100.132 159.308 99.4278 159.308C98.9145 159.308 98.4671 159.235 98.0858 159.088C97.7045 158.941 97.3891 158.736 97.1398 158.472C96.8611 158.179 96.6705 157.797 96.5678 157.328C96.4651 156.859 96.4138 156.279 96.4138 155.59V150.068C96.4138 149.408 96.2965 148.924 96.0618 148.616C95.8271 148.293 95.3871 148.132 94.7418 148.132V147.67C95.2111 147.714 95.6658 147.736 96.1058 147.736C96.5311 147.736 96.9345 147.714 97.3158 147.67C97.7118 147.611 98.0711 147.531 98.3938 147.428V156.074C98.3938 156.529 98.4231 156.947 98.4818 157.328C98.5405 157.709 98.6871 158.017 98.9218 158.252C99.1565 158.487 99.5378 158.604 100.066 158.604C100.638 158.604 101.144 158.428 101.584 158.076C102.038 157.724 102.39 157.247 102.64 156.646C102.904 156.045 103.036 155.37 103.036 154.622V150.068C103.036 149.408 102.918 148.924 102.684 148.616C102.449 148.293 102.009 148.132 101.364 148.132V147.67C101.833 147.714 102.288 147.736 102.728 147.736C103.153 147.736 103.556 147.714 103.938 147.67C104.334 147.611 104.693 147.531 105.016 147.428ZM114.917 147.362C115.313 147.362 115.658 147.443 115.951 147.604C116.259 147.765 116.494 147.978 116.655 148.242C116.831 148.491 116.919 148.777 116.919 149.1C116.919 149.467 116.802 149.789 116.567 150.068C116.347 150.347 116.046 150.486 115.665 150.486C115.357 150.486 115.086 150.391 114.851 150.2C114.616 149.995 114.499 149.709 114.499 149.342C114.499 149.063 114.572 148.829 114.719 148.638C114.88 148.433 115.056 148.271 115.247 148.154C115.144 148.007 114.99 147.934 114.785 147.934C114.33 147.934 113.912 148.073 113.531 148.352C113.15 148.616 112.827 148.961 112.563 149.386C112.299 149.811 112.094 150.266 111.947 150.75C111.8 151.219 111.727 151.659 111.727 152.07V156.734C111.727 157.453 111.932 157.937 112.343 158.186C112.768 158.421 113.34 158.538 114.059 158.538V159C113.722 158.985 113.245 158.971 112.629 158.956C112.013 158.927 111.36 158.912 110.671 158.912C110.172 158.912 109.674 158.927 109.175 158.956C108.691 158.971 108.324 158.985 108.075 159V158.538C108.676 158.538 109.102 158.428 109.351 158.208C109.615 157.988 109.747 157.57 109.747 156.954V150.068C109.747 149.408 109.63 148.924 109.395 148.616C109.16 148.293 108.72 148.132 108.075 148.132V147.67C108.544 147.714 108.999 147.736 109.439 147.736C109.864 147.736 110.268 147.714 110.649 147.67C111.045 147.611 111.404 147.531 111.727 147.428V150.178C111.888 149.753 112.116 149.327 112.409 148.902C112.717 148.462 113.084 148.095 113.509 147.802C113.934 147.509 114.404 147.362 114.917 147.362ZM123.052 147.362C124.343 147.362 125.348 147.758 126.066 148.55C126.8 149.327 127.166 150.545 127.166 152.202H119.4L119.378 151.784H125.054C125.084 151.065 125.025 150.405 124.878 149.804C124.732 149.188 124.497 148.697 124.174 148.33C123.866 147.963 123.463 147.78 122.964 147.78C122.29 147.78 121.688 148.117 121.16 148.792C120.647 149.467 120.339 150.537 120.236 152.004L120.302 152.092C120.273 152.312 120.251 152.554 120.236 152.818C120.222 153.082 120.214 153.346 120.214 153.61C120.214 154.607 120.376 155.465 120.698 156.184C121.021 156.903 121.439 157.453 121.952 157.834C122.48 158.201 123.023 158.384 123.58 158.384C124.02 158.384 124.438 158.318 124.834 158.186C125.23 158.039 125.597 157.805 125.934 157.482C126.272 157.159 126.565 156.727 126.814 156.184L127.254 156.36C127.093 156.844 126.829 157.313 126.462 157.768C126.096 158.223 125.634 158.597 125.076 158.89C124.519 159.169 123.874 159.308 123.14 159.308C122.084 159.308 121.175 159.066 120.412 158.582C119.664 158.098 119.085 157.431 118.674 156.58C118.278 155.715 118.08 154.725 118.08 153.61C118.08 152.319 118.286 151.212 118.696 150.288C119.107 149.349 119.686 148.631 120.434 148.132C121.182 147.619 122.055 147.362 123.052 147.362Z" fill="#141414"/>
<defs>
<clipPath id="clip0_122_4">
<rect width="67" height="79" fill="white" transform="translate(60 20)"/>
</clipPath>
</defs>
</svg>
