<svg width="186" height="182" viewBox="0 0 192 184" fill="none" xmlns="http://www.w3.org/2000/svg">
<path d="M1 1H191V183H1V1Z" fill="white" stroke="#1E2C30" stroke-width="2"/>
<path d="M75.3388 130.506L75.6688 130.638C75.4928 131.239 75.2875 131.738 75.0528 132.134C74.8328 132.545 74.5761 132.882 74.2828 133.146C74.0041 133.395 73.6228 133.623 73.1388 133.828C72.6695 134.033 72.0608 134.136 71.3128 134.136C70.5355 134.136 69.7801 134.004 69.0468 133.74C68.3281 133.491 67.5801 133.183 66.8028 132.816C66.0255 132.449 65.1675 132.112 64.2288 131.804C64.1261 131.775 64.0308 131.745 63.9428 131.716C63.8548 131.687 63.7741 131.665 63.7008 131.65C63.4221 131.753 63.1215 131.833 62.7988 131.892C62.4761 131.951 62.1681 131.98 61.8748 131.98C61.5815 131.98 61.3395 131.943 61.1488 131.87C60.9581 131.797 60.8628 131.687 60.8628 131.54C60.8628 131.232 61.2588 131.078 62.0508 131.078C62.5641 131.078 63.1141 131.137 63.7008 131.254C64.2288 131.107 64.6835 130.939 65.0648 130.748C65.4461 130.572 65.8348 130.403 66.2308 130.242C66.6415 130.081 67.1328 129.978 67.7048 129.934L67.7268 130.286C67.2868 130.33 66.9055 130.411 66.5828 130.528C66.2601 130.66 65.9375 130.799 65.6148 130.946C65.2921 131.093 64.9108 131.232 64.4708 131.364C65.2041 131.511 66.0035 131.665 66.8688 131.826C67.7341 131.987 68.5701 132.127 69.3768 132.244C70.1835 132.361 70.8728 132.42 71.4448 132.42C72.5008 132.42 73.3295 132.266 73.9308 131.958C74.5468 131.65 75.0161 131.166 75.3388 130.506ZM67.0448 114.116C68.4381 114.116 69.6555 114.431 70.6968 115.062C71.7528 115.693 72.5668 116.602 73.1388 117.79C73.7255 118.963 74.0188 120.393 74.0188 122.08C74.0188 123.723 73.7181 125.16 73.1168 126.392C72.5301 127.624 71.7088 128.585 70.6528 129.274C69.5968 129.963 68.3868 130.308 67.0228 130.308C65.6295 130.308 64.4048 129.993 63.3488 129.362C62.3075 128.731 61.4935 127.822 60.9068 126.634C60.3348 125.446 60.0488 124.016 60.0488 122.344C60.0488 120.701 60.3495 119.264 60.9508 118.032C61.5521 116.8 62.3735 115.839 63.4148 115.15C64.4708 114.461 65.6808 114.116 67.0448 114.116ZM66.9568 114.512C66.0035 114.512 65.1748 114.842 64.4708 115.502C63.7668 116.162 63.2168 117.071 62.8208 118.23C62.4395 119.389 62.2488 120.731 62.2488 122.256C62.2488 123.811 62.4615 125.167 62.8868 126.326C63.3268 127.47 63.9135 128.357 64.6468 128.988C65.3948 129.604 66.2161 129.912 67.1108 129.912C68.0641 129.912 68.8928 129.582 69.5968 128.922C70.3008 128.262 70.8435 127.353 71.2248 126.194C71.6208 125.021 71.8188 123.679 71.8188 122.168C71.8188 120.599 71.5988 119.242 71.1588 118.098C70.7335 116.954 70.1541 116.074 69.4208 115.458C68.6875 114.827 67.8661 114.512 66.9568 114.512ZM86.0794 118.428V127.624C86.0794 128.284 86.1968 128.775 86.4314 129.098C86.6808 129.406 87.1208 129.56 87.7514 129.56V130.022C87.2968 129.978 86.8421 129.956 86.3874 129.956C85.9621 129.956 85.5514 129.978 85.1554 130.022C84.7741 130.066 84.4221 130.147 84.0994 130.264V127.668C83.7328 128.621 83.2121 129.303 82.5374 129.714C81.8774 130.11 81.1954 130.308 80.4914 130.308C79.9781 130.308 79.5308 130.235 79.1494 130.088C78.7681 129.941 78.4528 129.736 78.2034 129.472C77.9248 129.179 77.7341 128.797 77.6314 128.328C77.5288 127.859 77.4774 127.279 77.4774 126.59V121.068C77.4774 120.408 77.3601 119.924 77.1254 119.616C76.8908 119.293 76.4508 119.132 75.8054 119.132V118.67C76.2748 118.714 76.7294 118.736 77.1694 118.736C77.5948 118.736 77.9981 118.714 78.3794 118.67C78.7754 118.611 79.1348 118.531 79.4574 118.428V127.074C79.4574 127.529 79.4868 127.947 79.5454 128.328C79.6041 128.709 79.7508 129.017 79.9854 129.252C80.2201 129.487 80.6014 129.604 81.1294 129.604C81.7014 129.604 82.2074 129.428 82.6474 129.076C83.1021 128.724 83.4541 128.247 83.7034 127.646C83.9674 127.045 84.0994 126.37 84.0994 125.622V121.068C84.0994 120.408 83.9821 119.924 83.7474 119.616C83.5128 119.293 83.0728 119.132 82.4274 119.132V118.67C82.8968 118.714 83.3514 118.736 83.7914 118.736C84.2168 118.736 84.6201 118.714 85.0014 118.67C85.3974 118.611 85.7568 118.531 86.0794 118.428ZM92.2626 130.154C91.6613 130.154 91.1406 130.044 90.7006 129.824C90.2606 129.589 89.9233 129.267 89.6886 128.856C89.4686 128.445 89.3586 127.969 89.3586 127.426C89.3586 126.781 89.5053 126.253 89.7986 125.842C90.1066 125.431 90.4953 125.101 90.9646 124.852C91.434 124.603 91.9253 124.397 92.4386 124.236C92.9666 124.06 93.4653 123.899 93.9346 123.752C94.404 123.591 94.7853 123.407 95.0786 123.202C95.3866 122.997 95.5406 122.725 95.5406 122.388V121.024C95.5406 120.408 95.4453 119.939 95.2546 119.616C95.0786 119.293 94.8366 119.081 94.5286 118.978C94.2206 118.861 93.876 118.802 93.4946 118.802C93.128 118.802 92.732 118.853 92.3066 118.956C91.896 119.059 91.566 119.271 91.3166 119.594C91.5953 119.653 91.8373 119.799 92.0426 120.034C92.248 120.269 92.3506 120.569 92.3506 120.936C92.3506 121.303 92.2333 121.596 91.9986 121.816C91.764 122.021 91.4633 122.124 91.0966 122.124C90.6713 122.124 90.356 121.992 90.1506 121.728C89.96 121.449 89.8646 121.141 89.8646 120.804C89.8646 120.423 89.96 120.115 90.1506 119.88C90.3413 119.645 90.5833 119.425 90.8766 119.22C91.214 118.985 91.6466 118.787 92.1746 118.626C92.7173 118.45 93.326 118.362 94.0006 118.362C94.602 118.362 95.1153 118.435 95.5406 118.582C95.966 118.714 96.318 118.912 96.5966 119.176C96.978 119.528 97.2273 119.961 97.3446 120.474C97.462 120.973 97.5206 121.574 97.5206 122.278V128.394C97.5206 128.761 97.572 129.025 97.6746 129.186C97.792 129.347 97.968 129.428 98.2026 129.428C98.364 129.428 98.518 129.391 98.6646 129.318C98.8113 129.245 98.9873 129.127 99.1926 128.966L99.4346 129.34C99.1266 129.575 98.8333 129.773 98.5546 129.934C98.276 130.081 97.902 130.154 97.4326 130.154C97.0073 130.154 96.6553 130.081 96.3766 129.934C96.098 129.787 95.8853 129.575 95.7386 129.296C95.6066 129.003 95.5406 128.636 95.5406 128.196C95.1446 128.856 94.668 129.347 94.1106 129.67C93.568 129.993 92.952 130.154 92.2626 130.154ZM93.0546 129.274C93.5386 129.274 93.986 129.135 94.3966 128.856C94.822 128.577 95.2033 128.159 95.5406 127.602V123.29C95.3646 123.539 95.108 123.752 94.7706 123.928C94.4333 124.089 94.0666 124.258 93.6706 124.434C93.2746 124.595 92.8933 124.793 92.5266 125.028C92.1746 125.248 91.8813 125.541 91.6466 125.908C91.412 126.275 91.2946 126.751 91.2946 127.338C91.2946 127.925 91.4486 128.394 91.7566 128.746C92.0793 129.098 92.512 129.274 93.0546 129.274ZM103.858 112.752V127.954C103.858 128.57 103.982 128.988 104.232 129.208C104.496 129.428 104.928 129.538 105.53 129.538V130C105.28 129.985 104.899 129.971 104.386 129.956C103.887 129.927 103.381 129.912 102.868 129.912C102.369 129.912 101.863 129.927 101.35 129.956C100.836 129.971 100.455 129.985 100.206 130V129.538C100.807 129.538 101.232 129.428 101.482 129.208C101.746 128.988 101.878 128.57 101.878 127.954V115.392C101.878 114.732 101.76 114.248 101.526 113.94C101.291 113.617 100.851 113.456 100.206 113.456V112.994C100.675 113.038 101.13 113.06 101.57 113.06C101.995 113.06 102.398 113.038 102.78 112.994C103.176 112.935 103.535 112.855 103.858 112.752ZM109.427 113.17C109.808 113.17 110.138 113.309 110.417 113.588C110.695 113.867 110.835 114.197 110.835 114.578C110.835 114.959 110.695 115.289 110.417 115.568C110.138 115.847 109.808 115.986 109.427 115.986C109.045 115.986 108.715 115.847 108.437 115.568C108.158 115.289 108.019 114.959 108.019 114.578C108.019 114.197 108.158 113.867 108.437 113.588C108.715 113.309 109.045 113.17 109.427 113.17ZM110.571 118.428V127.954C110.571 128.57 110.695 128.988 110.945 129.208C111.209 129.428 111.641 129.538 112.243 129.538V130C111.993 129.985 111.612 129.971 111.099 129.956C110.6 129.927 110.094 129.912 109.581 129.912C109.082 129.912 108.576 129.927 108.063 129.956C107.549 129.971 107.168 129.985 106.919 130V129.538C107.52 129.538 107.945 129.428 108.195 129.208C108.459 128.988 108.591 128.57 108.591 127.954V121.068C108.591 120.408 108.473 119.924 108.239 119.616C108.004 119.293 107.564 119.132 106.919 119.132V118.67C107.388 118.714 107.843 118.736 108.283 118.736C108.708 118.736 109.111 118.714 109.493 118.67C109.889 118.611 110.248 118.531 110.571 118.428ZM117.17 115.018V118.692H120.426V119.132H117.17V127.646C117.17 128.335 117.295 128.819 117.544 129.098C117.793 129.377 118.138 129.516 118.578 129.516C119.018 129.516 119.399 129.34 119.722 128.988C120.045 128.621 120.323 128.013 120.558 127.162L120.998 127.272C120.851 128.123 120.558 128.841 120.118 129.428C119.693 130.015 119.033 130.308 118.138 130.308C117.639 130.308 117.229 130.242 116.906 130.11C116.583 129.993 116.297 129.817 116.048 129.582C115.725 129.245 115.498 128.841 115.366 128.372C115.249 127.903 115.19 127.279 115.19 126.502V119.132H113.078V118.692H115.19V115.326C115.557 115.311 115.909 115.282 116.246 115.238C116.583 115.194 116.891 115.121 117.17 115.018ZM131.899 118.67V119.11C131.621 119.139 131.364 119.264 131.129 119.484C130.895 119.704 130.675 120.093 130.469 120.65L126.861 130.11H126.487L122.439 120.364C122.161 119.792 121.882 119.447 121.603 119.33C121.339 119.198 121.119 119.132 120.943 119.132V118.67C121.266 118.714 121.603 118.751 121.955 118.78C122.307 118.795 122.689 118.802 123.099 118.802C123.554 118.802 124.031 118.787 124.529 118.758C125.043 118.729 125.519 118.699 125.959 118.67V119.132C125.593 119.132 125.263 119.161 124.969 119.22C124.691 119.264 124.515 119.418 124.441 119.682C124.368 119.931 124.456 120.364 124.705 120.98L127.411 127.69L127.279 127.734L129.787 121.178C129.978 120.694 130.051 120.313 130.007 120.034C129.978 119.741 129.831 119.521 129.567 119.374C129.303 119.227 128.907 119.139 128.379 119.11V118.67C128.643 118.685 128.871 118.699 129.061 118.714C129.252 118.714 129.435 118.721 129.611 118.736C129.802 118.736 130.007 118.736 130.227 118.736C130.565 118.736 130.865 118.729 131.129 118.714C131.408 118.699 131.665 118.685 131.899 118.67ZM126.861 130.11L126.113 132.024C125.967 132.391 125.813 132.699 125.651 132.948C125.505 133.197 125.343 133.403 125.167 133.564C124.933 133.784 124.654 133.931 124.331 134.004C124.009 134.092 123.715 134.136 123.451 134.136C123.173 134.136 122.916 134.085 122.681 133.982C122.461 133.879 122.285 133.725 122.153 133.52C122.021 133.329 121.955 133.095 121.955 132.816C121.955 132.464 122.058 132.178 122.263 131.958C122.469 131.753 122.755 131.65 123.121 131.65C123.429 131.65 123.693 131.738 123.913 131.914C124.133 132.09 124.243 132.347 124.243 132.684C124.243 132.933 124.185 133.139 124.067 133.3C123.95 133.461 123.811 133.586 123.649 133.674C123.679 133.689 123.701 133.696 123.715 133.696C123.745 133.696 123.767 133.696 123.781 133.696C124.177 133.696 124.529 133.557 124.837 133.278C125.145 133.014 125.417 132.581 125.651 131.98L126.443 129.934L126.861 130.11Z" fill="#141414"/>
<g clip-path="url(#clip0_122_3)">
<path d="M70.4194 80.3691C70.1995 80.9273 69.6655 81.2668 69.0996 81.2668C68.9258 81.2668 68.7484 81.2348 68.5763 81.1655C63.1463 79.0092 59.852 76.2379 59.0467 73.1536C58.848 72.3946 59.3021 71.616 60.0614 71.4187C60.8206 71.2213 61.5958 71.6746 61.7927 72.4355C62.3515 74.5758 65.1331 76.7392 69.6247 78.5239C70.352 78.8119 70.7086 79.6385 70.4194 80.3691ZM75.2428 65.4813C75.5107 65.7089 75.8371 65.8208 76.1617 65.8208C76.5626 65.8208 76.9618 65.6502 77.242 65.3213C77.7512 64.724 77.6784 63.8263 77.0824 63.3161C76.3781 62.7153 75.6898 62.0789 75.0353 61.4229C68.798 55.1727 65.5322 47.2284 66.5221 40.8964C69.183 40.4787 72.1278 40.8164 75.1115 41.8155C75.2375 41.8812 75.3759 41.9292 75.5195 41.9559C79.4914 43.3638 83.5147 45.9289 87.0059 49.4274C87.884 50.3073 88.7213 51.2423 89.4929 52.2023C89.9843 52.8138 90.8784 52.9098 91.4886 52.4174C92.0989 51.925 92.1947 51.029 91.7033 50.4175C90.8678 49.3776 89.963 48.3679 89.0122 47.4151C85.4253 43.8207 81.2884 41.1275 77.1285 39.5383C77.0274 36.966 77.462 34.6178 78.3827 32.7672C80.7261 33.2774 83.1511 34.7066 85.3313 36.87C85.0279 38.0842 84.7849 39.3392 84.6093 40.6262C84.5028 41.4048 85.0457 42.1212 85.8226 42.2279C86.5996 42.3345 87.3145 41.7906 87.421 41.012C88.3754 34.0436 91.3946 28.1933 95.5705 25.1376C99.7464 28.1933 102.766 34.0418 103.72 41.0084C103.826 41.787 104.541 42.331 105.318 42.2243C106.095 42.1177 106.638 41.3995 106.532 40.6227C106.356 39.3356 106.113 38.0824 105.81 36.87C107.99 34.7066 110.417 33.2774 112.758 32.7672C113.677 34.6178 114.114 36.966 114.013 39.5383C109.853 41.1293 105.716 43.8224 102.129 47.4151C101.178 48.3679 100.273 49.3776 99.4377 50.4175C98.9463 51.029 99.0421 51.925 99.6523 52.4174C100.263 52.9098 101.157 52.8138 101.648 52.2023C102.42 51.2423 103.257 50.3091 104.135 49.4274C107.626 45.9289 111.648 43.362 115.62 41.9559C115.765 41.9292 115.903 41.8812 116.029 41.8155C119.013 40.8182 121.958 40.4787 124.619 40.8964C125.609 47.2302 122.343 55.1745 116.106 61.4229C115.451 62.0789 114.763 62.7153 114.059 63.3161C113.463 63.8245 113.39 64.7223 113.897 65.3213C114.404 65.9186 115.3 65.9915 115.898 65.4831C116.659 64.8342 117.404 64.1445 118.112 63.4352C125.321 56.2126 128.892 46.7644 127.214 39.3676C127.094 38.8343 126.678 38.4184 126.145 38.2957C123.276 37.6415 120.099 37.782 116.861 38.6228C116.831 35.4906 116.086 32.6392 114.706 30.4438C114.415 29.9816 113.885 29.7274 113.342 29.7897C110.491 30.1203 107.543 31.5424 104.893 33.8445C103.06 28.7124 100.057 24.5723 96.3244 22.2187C95.8632 21.9271 95.2742 21.9271 94.813 22.2187C91.0806 24.5723 88.0773 28.7124 86.2448 33.8445C83.5946 31.5424 80.6498 30.1203 77.7955 29.7897C77.2527 29.7274 76.7241 29.9816 76.4331 30.4438C75.0548 32.6392 74.3115 35.4906 74.2813 38.6228C71.0456 37.782 67.8667 37.6415 64.9983 38.2957C64.4661 38.4166 64.051 38.8343 63.9286 39.3676C62.2486 46.7644 65.8214 56.2109 73.0307 63.4352C73.7367 64.1427 74.4818 64.8307 75.2428 65.4813ZM74.5705 76.6023C74.8295 75.861 74.4392 75.0504 73.6995 74.7909C69.4172 73.2905 66.8609 71.3938 66.8609 69.7192C66.8609 68.6366 67.9749 67.4136 69.9972 66.2741C70.6802 65.8902 70.9232 65.0227 70.5383 64.3383C70.1551 63.6539 69.2894 63.4103 68.6065 63.7961C65.5641 65.5098 64.0226 67.5025 64.0226 69.721C64.0226 72.7928 67.0454 75.4735 72.7628 77.4787C72.9172 77.5338 73.075 77.5587 73.2312 77.5587C73.8183 77.5569 74.3665 77.1889 74.5705 76.6023ZM117.161 74.8904C116.42 75.1428 116.022 75.9499 116.274 76.6947C116.475 77.2867 117.026 77.66 117.617 77.66C117.768 77.66 117.922 77.6351 118.073 77.5835C123.993 75.5695 127.124 72.8497 127.124 69.7192C127.124 67.5807 125.687 65.6484 122.854 63.9756C122.178 63.5774 121.309 63.8014 120.911 64.4787C120.514 65.156 120.737 66.0271 121.413 66.4252C123.265 67.5185 124.285 68.6882 124.285 69.7174C124.284 71.4133 121.555 73.3954 117.161 74.8904ZM109.647 85.2843C109.647 86.7242 108.478 87.8975 107.039 87.8975C106.255 87.8975 105.62 88.5339 105.62 89.3196C105.62 90.1053 106.255 90.7417 107.039 90.7417C110.042 90.7417 112.485 88.2939 112.485 85.2843C112.485 84.4986 111.85 83.8622 111.066 83.8622C110.282 83.8622 109.647 84.4986 109.647 85.2843ZM130.938 71.4187C130.18 71.2213 129.403 71.6746 129.206 72.4355C128.647 74.5775 125.868 76.7392 121.376 78.5239C120.647 78.8137 120.291 79.6403 120.58 80.3709C120.8 80.9291 121.335 81.2686 121.899 81.2686C122.073 81.2686 122.251 81.2366 122.423 81.1673C127.853 79.0092 131.149 76.2379 131.954 73.1536C132.151 72.3946 131.695 71.6178 130.938 71.4187ZM105.719 72.0355C105.719 72.8106 105.091 73.4398 104.318 73.4398C103.534 73.4398 102.899 74.0762 102.899 74.862C102.899 75.6477 103.534 76.2841 104.318 76.2841C106.656 76.2841 108.558 74.3784 108.558 72.0355C108.558 71.2498 107.923 70.6134 107.138 70.6134C106.354 70.6134 105.719 71.2516 105.719 72.0355ZM101.664 62.9535H102.035C102.819 62.9535 103.454 62.3171 103.454 61.5314C103.454 60.7457 102.819 60.1093 102.035 60.1093H101.664C100.88 60.1093 100.245 60.7457 100.245 61.5314C100.245 62.3171 100.882 62.9535 101.664 62.9535ZM116.324 79.2581C117.624 81.066 118.312 83.1974 118.312 85.4212C118.312 91.2537 113.578 96 107.756 96H83.3906C77.5702 96 72.8338 91.2555 72.8338 85.423C72.8338 81.553 74.9732 78.012 78.294 76.1668C77.8292 75.1144 77.572 73.9483 77.572 72.7252C77.572 69.0046 79.958 65.8315 83.277 64.6618C82.5444 63.5988 82.1133 62.31 82.1133 60.9216C82.1133 57.2863 85.0652 54.3283 88.6929 54.3283H102.453C106.081 54.3283 109.033 57.2863 109.033 60.9216C109.033 64.5569 106.081 67.5149 102.453 67.5149H88.6929C87.8095 67.5149 86.9668 67.339 86.1952 67.0225C86.1632 67.0243 86.1295 67.0261 86.0976 67.0261C82.9613 67.0261 80.4103 69.5823 80.4103 72.7252C80.4103 73.9003 80.7669 74.9953 81.3789 75.9037C81.4268 75.9623 81.4711 76.0246 81.5102 76.0903C82.5462 77.5036 84.2172 78.4244 86.0976 78.4244H105.049C108.185 78.4244 110.736 75.8681 110.736 72.7252C110.736 71.0329 109.984 69.4348 108.671 68.3415C108.068 67.8403 107.986 66.9425 108.487 66.3381C108.987 65.7337 109.883 65.652 110.486 66.1533C112.448 67.7887 113.574 70.1832 113.574 72.7235C113.574 77.4342 109.75 81.2668 105.049 81.2668H86.0976C83.6407 81.2668 81.4232 80.2198 79.8657 78.547C77.3237 79.8643 75.6721 82.5165 75.6721 85.4212C75.6721 89.6858 79.1349 93.1558 83.3906 93.1558H107.756C112.011 93.1558 115.474 89.6858 115.474 85.423C115.474 83.8 114.972 82.2445 114.021 80.9238C113.564 80.2874 113.707 79.3985 114.342 78.9381C114.978 78.4777 115.864 78.6217 116.324 79.2581ZM84.9516 60.9216C84.9516 62.989 86.6298 64.6707 88.6929 64.6707H102.453C104.516 64.6707 106.195 62.989 106.195 60.9216C106.195 58.8542 104.516 57.1726 102.453 57.1726H88.6929C86.6298 57.1726 84.9516 58.8542 84.9516 60.9216Z" fill="#7A9CA5"/>
</g>
<path d="M59.8662 140.182C60.5995 140.182 61.1569 140.27 61.5382 140.446C61.9195 140.607 62.2569 140.791 62.5502 140.996C62.7262 141.099 62.8655 141.179 62.9682 141.238C63.0855 141.282 63.1955 141.304 63.2982 141.304C63.4449 141.304 63.5475 141.223 63.6062 141.062C63.6795 140.901 63.7382 140.659 63.7822 140.336H64.2882C64.2735 140.585 64.2515 140.886 64.2222 141.238C64.2075 141.575 64.1929 142.03 64.1782 142.602C64.1782 143.159 64.1782 143.9 64.1782 144.824H63.6722C63.6282 144.12 63.4742 143.445 63.2102 142.8C62.9462 142.155 62.5575 141.627 62.0442 141.216C61.5455 140.805 60.8855 140.6 60.0642 140.6C59.2869 140.6 58.6415 140.835 58.1282 141.304C57.6295 141.773 57.3802 142.389 57.3802 143.152C57.3802 143.812 57.5489 144.369 57.8862 144.824C58.2235 145.264 58.6709 145.667 59.2282 146.034C59.8002 146.386 60.4162 146.767 61.0762 147.178C61.8389 147.647 62.5135 148.117 63.1002 148.586C63.7015 149.041 64.1709 149.547 64.5082 150.104C64.8602 150.661 65.0362 151.336 65.0362 152.128C65.0362 153.067 64.8235 153.844 64.3982 154.46C63.9729 155.076 63.4082 155.538 62.7042 155.846C62.0002 156.154 61.2229 156.308 60.3722 156.308C59.5949 156.308 58.9789 156.22 58.5242 156.044C58.0695 155.868 57.6809 155.685 57.3582 155.494C57.0355 155.289 56.7862 155.186 56.6102 155.186C56.4635 155.186 56.3535 155.267 56.2802 155.428C56.2215 155.589 56.1702 155.831 56.1262 156.154H55.6202C55.6495 155.846 55.6642 155.487 55.6642 155.076C55.6789 154.651 55.6862 154.101 55.6862 153.426C55.7009 152.751 55.7082 151.901 55.7082 150.874H56.2142C56.2729 151.754 56.4342 152.575 56.6982 153.338C56.9769 154.101 57.3949 154.717 57.9522 155.186C58.5242 155.641 59.2795 155.868 60.2182 155.868C60.7022 155.868 61.1569 155.773 61.5822 155.582C62.0222 155.377 62.3815 155.061 62.6602 154.636C62.9389 154.196 63.0782 153.631 63.0782 152.942C63.0782 152.341 62.9315 151.82 62.6382 151.38C62.3595 150.925 61.9635 150.507 61.4502 150.126C60.9369 149.73 60.3355 149.327 59.6462 148.916C58.9569 148.491 58.3115 148.058 57.7102 147.618C57.1089 147.178 56.6249 146.672 56.2582 146.1C55.9062 145.513 55.7302 144.809 55.7302 143.988C55.7302 143.123 55.9209 142.411 56.3022 141.854C56.6982 141.282 57.2115 140.864 57.8422 140.6C58.4729 140.321 59.1475 140.182 59.8662 140.182ZM72.3631 144.362C73.6537 144.362 74.6584 144.758 75.3771 145.55C76.1104 146.327 76.4771 147.545 76.4771 149.202H68.7111L68.6891 148.784H74.3651C74.3944 148.065 74.3357 147.405 74.1891 146.804C74.0424 146.188 73.8077 145.697 73.4851 145.33C73.1771 144.963 72.7737 144.78 72.2751 144.78C71.6004 144.78 70.9991 145.117 70.4711 145.792C69.9577 146.467 69.6497 147.537 69.5471 149.004L69.6131 149.092C69.5837 149.312 69.5617 149.554 69.5471 149.818C69.5324 150.082 69.5251 150.346 69.5251 150.61C69.5251 151.607 69.6864 152.465 70.0091 153.184C70.3317 153.903 70.7497 154.453 71.2631 154.834C71.7911 155.201 72.3337 155.384 72.8911 155.384C73.3311 155.384 73.7491 155.318 74.1451 155.186C74.5411 155.039 74.9077 154.805 75.2451 154.482C75.5824 154.159 75.8757 153.727 76.1251 153.184L76.5651 153.36C76.4037 153.844 76.1397 154.313 75.7731 154.768C75.4064 155.223 74.9444 155.597 74.3871 155.89C73.8297 156.169 73.1844 156.308 72.4511 156.308C71.3951 156.308 70.4857 156.066 69.7231 155.582C68.9751 155.098 68.3957 154.431 67.9851 153.58C67.5891 152.715 67.3911 151.725 67.3911 150.61C67.3911 149.319 67.5964 148.212 68.0071 147.288C68.4177 146.349 68.9971 145.631 69.7451 145.132C70.4931 144.619 71.3657 144.362 72.3631 144.362ZM85.252 144.362C85.648 144.362 85.9926 144.443 86.286 144.604C86.594 144.765 86.8286 144.978 86.99 145.242C87.166 145.491 87.254 145.777 87.254 146.1C87.254 146.467 87.1366 146.789 86.902 147.068C86.682 147.347 86.3813 147.486 86 147.486C85.692 147.486 85.4206 147.391 85.186 147.2C84.9513 146.995 84.834 146.709 84.834 146.342C84.834 146.063 84.9073 145.829 85.054 145.638C85.2153 145.433 85.3913 145.271 85.582 145.154C85.4793 145.007 85.3253 144.934 85.12 144.934C84.6653 144.934 84.2473 145.073 83.866 145.352C83.4846 145.616 83.162 145.961 82.898 146.386C82.634 146.811 82.4286 147.266 82.282 147.75C82.1353 148.219 82.062 148.659 82.062 149.07V153.734C82.062 154.453 82.2673 154.937 82.678 155.186C83.1033 155.421 83.6753 155.538 84.394 155.538V156C84.0566 155.985 83.58 155.971 82.964 155.956C82.348 155.927 81.6953 155.912 81.006 155.912C80.5073 155.912 80.0086 155.927 79.51 155.956C79.026 155.971 78.6593 155.985 78.41 156V155.538C79.0113 155.538 79.4366 155.428 79.686 155.208C79.95 154.988 80.082 154.57 80.082 153.954V147.068C80.082 146.408 79.9646 145.924 79.73 145.616C79.4953 145.293 79.0553 145.132 78.41 145.132V144.67C78.8793 144.714 79.334 144.736 79.774 144.736C80.1993 144.736 80.6026 144.714 80.984 144.67C81.38 144.611 81.7393 144.531 82.062 144.428V147.178C82.2233 146.753 82.4506 146.327 82.744 145.902C83.052 145.462 83.4186 145.095 83.844 144.802C84.2693 144.509 84.7386 144.362 85.252 144.362ZM98.5248 144.67V145.11C98.2462 145.139 97.9895 145.264 97.7548 145.484C97.5202 145.704 97.3002 146.093 97.0948 146.65L93.4868 156.11C93.4282 156.11 93.3695 156.11 93.3108 156.11C93.2522 156.11 93.1862 156.11 93.1128 156.11L89.0648 146.364C88.8302 145.792 88.5955 145.447 88.3608 145.33C88.1408 145.198 87.9502 145.132 87.7888 145.132V144.67C88.0822 144.685 88.3828 144.707 88.6908 144.736C89.0135 144.751 89.3582 144.758 89.7248 144.758C90.1795 144.758 90.6562 144.751 91.1548 144.736C91.6682 144.721 92.1448 144.699 92.5848 144.67V145.132C92.2182 145.132 91.8882 145.161 91.5948 145.22C91.3162 145.264 91.1328 145.403 91.0448 145.638C90.9715 145.873 91.0448 146.276 91.2648 146.848L94.0148 153.646L93.8828 153.756L96.3908 147.178C96.5815 146.694 96.6548 146.313 96.6108 146.034C96.5815 145.741 96.4348 145.521 96.1708 145.374C95.9215 145.227 95.5328 145.139 95.0048 145.11V144.67C95.2688 144.685 95.4962 144.699 95.6868 144.714C95.8775 144.714 96.0608 144.721 96.2368 144.736C96.4275 144.736 96.6328 144.736 96.8528 144.736C97.1902 144.736 97.4908 144.729 97.7548 144.714C98.0335 144.699 98.2902 144.685 98.5248 144.67ZM102.007 139.17C102.388 139.17 102.718 139.309 102.997 139.588C103.275 139.867 103.415 140.197 103.415 140.578C103.415 140.959 103.275 141.289 102.997 141.568C102.718 141.847 102.388 141.986 102.007 141.986C101.625 141.986 101.295 141.847 101.017 141.568C100.738 141.289 100.599 140.959 100.599 140.578C100.599 140.197 100.738 139.867 101.017 139.588C101.295 139.309 101.625 139.17 102.007 139.17ZM103.151 144.428V153.954C103.151 154.57 103.275 154.988 103.525 155.208C103.789 155.428 104.221 155.538 104.823 155.538V156C104.573 155.985 104.192 155.971 103.679 155.956C103.18 155.927 102.674 155.912 102.161 155.912C101.662 155.912 101.156 155.927 100.643 155.956C100.129 155.971 99.7478 155.985 99.4985 156V155.538C100.1 155.538 100.525 155.428 100.775 155.208C101.039 154.988 101.171 154.57 101.171 153.954V147.068C101.171 146.408 101.053 145.924 100.819 145.616C100.584 145.293 100.144 145.132 99.4985 145.132V144.67C99.9678 144.714 100.423 144.736 100.863 144.736C101.288 144.736 101.691 144.714 102.073 144.67C102.469 144.611 102.828 144.531 103.151 144.428ZM111.708 144.362C112.177 144.362 112.632 144.421 113.072 144.538C113.512 144.655 113.908 144.831 114.26 145.066C114.597 145.286 114.854 145.543 115.03 145.836C115.206 146.115 115.294 146.423 115.294 146.76C115.294 147.156 115.184 147.464 114.964 147.684C114.744 147.889 114.465 147.992 114.128 147.992C113.805 147.992 113.519 147.897 113.27 147.706C113.035 147.515 112.918 147.244 112.918 146.892C112.918 146.555 113.006 146.283 113.182 146.078C113.372 145.873 113.592 145.741 113.842 145.682C113.695 145.418 113.431 145.198 113.05 145.022C112.683 144.846 112.287 144.758 111.862 144.758C111.495 144.758 111.128 144.846 110.762 145.022C110.395 145.198 110.058 145.491 109.75 145.902C109.442 146.298 109.192 146.848 109.002 147.552C108.811 148.241 108.716 149.107 108.716 150.148C108.716 151.439 108.862 152.465 109.156 153.228C109.449 153.991 109.83 154.541 110.3 154.878C110.784 155.201 111.312 155.362 111.884 155.362C112.265 155.362 112.654 155.289 113.05 155.142C113.446 154.995 113.82 154.761 114.172 154.438C114.524 154.101 114.824 153.653 115.074 153.096L115.492 153.25C115.345 153.719 115.103 154.196 114.766 154.68C114.428 155.149 113.988 155.538 113.446 155.846C112.903 156.154 112.236 156.308 111.444 156.308C110.534 156.308 109.713 156.073 108.98 155.604C108.246 155.135 107.66 154.467 107.22 153.602C106.794 152.722 106.582 151.681 106.582 150.478C106.582 149.275 106.794 148.219 107.22 147.31C107.66 146.386 108.268 145.667 109.046 145.154C109.823 144.626 110.71 144.362 111.708 144.362ZM122.517 144.362C123.808 144.362 124.812 144.758 125.531 145.55C126.264 146.327 126.631 147.545 126.631 149.202H118.865L118.843 148.784H124.519C124.548 148.065 124.49 147.405 124.343 146.804C124.196 146.188 123.962 145.697 123.639 145.33C123.331 144.963 122.928 144.78 122.429 144.78C121.754 144.78 121.153 145.117 120.625 145.792C120.112 146.467 119.804 147.537 119.701 149.004L119.767 149.092C119.738 149.312 119.716 149.554 119.701 149.818C119.686 150.082 119.679 150.346 119.679 150.61C119.679 151.607 119.84 152.465 120.163 153.184C120.486 153.903 120.904 154.453 121.417 154.834C121.945 155.201 122.488 155.384 123.045 155.384C123.485 155.384 123.903 155.318 124.299 155.186C124.695 155.039 125.062 154.805 125.399 154.482C125.736 154.159 126.03 153.727 126.279 153.184L126.719 153.36C126.558 153.844 126.294 154.313 125.927 154.768C125.56 155.223 125.098 155.597 124.541 155.89C123.984 156.169 123.338 156.308 122.605 156.308C121.549 156.308 120.64 156.066 119.877 155.582C119.129 155.098 118.55 154.431 118.139 153.58C117.743 152.715 117.545 151.725 117.545 150.61C117.545 149.319 117.75 148.212 118.161 147.288C118.572 146.349 119.151 145.631 119.899 145.132C120.647 144.619 121.52 144.362 122.517 144.362ZM132.502 144.362C133.089 144.362 133.587 144.457 133.998 144.648C134.409 144.839 134.709 145.015 134.9 145.176C135.384 145.572 135.677 145.308 135.78 144.384H136.286C136.257 144.795 136.235 145.286 136.22 145.858C136.205 146.415 136.198 147.171 136.198 148.124H135.692C135.604 147.581 135.45 147.053 135.23 146.54C135.025 146.027 134.717 145.609 134.306 145.286C133.895 144.949 133.36 144.78 132.7 144.78C132.187 144.78 131.754 144.927 131.402 145.22C131.065 145.499 130.896 145.917 130.896 146.474C130.896 146.914 131.028 147.295 131.292 147.618C131.556 147.926 131.901 148.219 132.326 148.498C132.751 148.762 133.213 149.055 133.712 149.378C134.269 149.73 134.775 150.089 135.23 150.456C135.685 150.823 136.044 151.226 136.308 151.666C136.587 152.106 136.726 152.627 136.726 153.228C136.726 153.903 136.55 154.467 136.198 154.922C135.846 155.377 135.384 155.721 134.812 155.956C134.255 156.191 133.639 156.308 132.964 156.308C132.641 156.308 132.333 156.279 132.04 156.22C131.761 156.176 131.49 156.103 131.226 156C131.079 155.927 130.925 155.839 130.764 155.736C130.617 155.633 130.471 155.523 130.324 155.406C130.177 155.289 130.045 155.296 129.928 155.428C129.811 155.545 129.723 155.787 129.664 156.154H129.158C129.187 155.685 129.209 155.113 129.224 154.438C129.239 153.763 129.246 152.869 129.246 151.754H129.752C129.855 152.575 130.001 153.294 130.192 153.91C130.383 154.526 130.683 155.01 131.094 155.362C131.505 155.699 132.077 155.868 132.81 155.868C133.103 155.868 133.397 155.802 133.69 155.67C133.998 155.538 134.255 155.318 134.46 155.01C134.665 154.702 134.768 154.291 134.768 153.778C134.768 153.133 134.533 152.605 134.064 152.194C133.595 151.783 133.001 151.351 132.282 150.896C131.754 150.559 131.255 150.221 130.786 149.884C130.331 149.547 129.957 149.165 129.664 148.74C129.385 148.315 129.246 147.801 129.246 147.2C129.246 146.54 129.393 146.005 129.686 145.594C129.994 145.169 130.397 144.861 130.896 144.67C131.395 144.465 131.93 144.362 132.502 144.362Z" fill="#141414"/>
<defs>
<clipPath id="clip0_122_3">
<rect width="73" height="74" fill="white" transform="translate(59 22)"/>
</clipPath>
</defs>
</svg>
